<?xml version="1.0" encoding="utf-8"?>
<!-- Generator: Adobe Illustrator 27.9.4, SVG Export Plug-In . SVG Version: 9.03 Build 54784)  -->
<svg version="1.1" id="Calque_1" xmlns="http://www.w3.org/2000/svg" xmlns:xlink="http://www.w3.org/1999/xlink" x="0px" y="0px"
	 viewBox="0 0 694.8 421.2" style="enable-background:new 0 0 694.8 421.2;" xml:space="preserve">
<style type="text/css">
	.st0{fill:#71C03D;}
	.st1{fill:#429E57;}
</style>
<g>
	<path class="st0" d="M692.6,0H0v412.3c1.9-0.2,3.8-0.4,5.7-0.1c4.7,0.7,8.6,4.1,13,5.8C30,422.6,44.6,414,46,401.8
		c0.3,8.4,10.8,13.3,19,11.1c8.1-2.1,14.2-8.8,19.7-15.1c5.1,5.6,14.9,4.3,20.6-0.8c5.7-5.1,8.3-12.7,10.7-19.9
		c4.2,6.7,13.1,10,20.6,7.7s13.1-10,12.8-17.9c9.4,14.4,36.5,8.2,38.7-8.8c-1.2,8.7,11.7,13.6,18.9,8.6c7.2-5,9.1-14.8,9.2-23.5
		c10.3,4.9,22.7-10.3,15.8-19.4c13.3,7.8,32.5-8.1,27.4-22.6c11.7,0.4,15.9-19.8,5-24.1c6.6-1.8,13.9-4.1,17.1-10.1
		c2.3-4.4-0.2-10.8-4.1-12.8c6.9-0.9,13.2-6.2,14.7-13c3.4,14.1,26,17.9,33.8,5.6c9.9,10.8,31.4,4.9,34.3-9.4
		c-0.3,8.6,8.3,16.2,16.8,15.4c8.6-0.8,15.4-9.5,14.6-18.1c2.5,9,11,16.1,20.3,17c9.3,0.9,18.9-4.5,23.1-13
		c4.9,9.2,20.6,9.1,25.5-0.1c1.8-3.4,2.4-7.6,5.4-10c3-2.4,7.2-2,10.9-2.8c10.4-2.2,16.1-16,10.5-25c11.8,6.7,24.8-6.3,32.2-17.6
		c5.4-8.2,10.1-20.8,2-26.4c5.6,0,10.8-5.2,10.8-10.8c0-3.1-1.5-6-3.7-8.1c3.4-0.2,7-2.1,8.9-5c3.5-5.1,3.4-11.8,3.2-18
		c0.2,10.2,14.9,14.6,23.6,9.2c8.7-5.4,12.5-15.9,15.7-25.7c-1.4,9.6,10.6,17.5,19.6,13.9c9-3.6,12.8-15.4,9.4-24.5
		c1.7,7.3,12.5,9.1,18.2,4.2s6.6-13.5,4.9-20.7c3,5.9,12.7,4.6,16.6-0.7c3.9-5.3,3.7-12.5,3.4-19.2c3.8,5.9,13.1,7.1,18.4,2.5
		s5.1-14.1-0.3-18.5c9.4,7.8,16.6-19.4,11.1-26.6C686.9,6,690.6,3,692.6,0z"/>
	<g>
		<g>
			<path class="st1" d="M427.7,89.1c-0.1-1.4-0.4-2.8-1.1-4.2C427,86.3,427.3,87.7,427.7,89.1z"/>
		</g>
		<g>
			<path class="st1" d="M499.9,201.4c-1.6-1.5-3.1-2.9-4.6-4.4c-29.9-28.6-56.7-67.4-67.6-108c0,0.6,0,1.2-0.1,1.7
				c-1.3-3.5-2.6-7.1-3.9-10.6c-3.5,7.1-5.3,15-5.2,22.9c-3.8,2.3-8.1,3.8-12.3,5.2c-3.5-0.5-7.1-1.4-9.8,0.7c-1.2,1-2,2.4-2.6,4
				c-0.1,0-0.1,0.1-0.2,0.1c-3.6,1.9-6.8,4.3-9.9,6.9c-1.5-0.5-2.9-1-4.3-0.3c-2.1,1.1-2.2,4-2.8,6.3c-0.1,0.3-0.1,0.5-0.2,0.8
				c-2.7,2.6-5.4,5.2-8.2,7.6c-0.5,0.1-1,0.2-1.5,0.3c-2.4,0.3-4.9-0.3-7.4-0.2c-2.5,0.1-5.1,1.1-6.2,3.3c-0.4,0.9-0.5,1.8-0.9,2.7
				c-1.3,2.8-5,3.3-8.1,2.8s-6.1-1.7-9.1-1.1c-2.6,0.5-4.8,3.3-4.2,5.6c-4.5,0.3-9.1,0.4-13.6,0.4c-1.6-1.1-3.1-2.3-4.1-3.9
				c-0.7-1-1.2-2-2.2-2.7c-2.6-1.7-5.7,0.7-8.3,2.4c-2,1.3-4.3,2.1-6.7,2.5c-3.4-1-6.6-2.4-9.5-4.3c-2.9-5.7-7.1-17-14.1-15.2
				c-0.2,0-0.3,0.1-0.5,0.2c-2.4-3.7-4.4-7.7-6-11.8c-0.8-2.2-1.8-4.6-4-5.6c-2.4-1-5.1,0.4-7.5,1.3c-17,6.5-33.4-10.4-51.2-14.3
				c-20.4-4.5-41,8.7-61.9,6.9c-10.9-1-21.7-6.1-32.4-3.6c-8.4,1.9-15.6,8.5-24.3,8.9c-10.7,0.5-20.2-8.4-30.9-7.9
				c-8.2,0.4-15.2,6.2-23.4,7.3C20.2,110,9.9,103.9,0,100.1v312.2c1.9-0.2,3.8-0.4,5.7-0.1c4.7,0.7,8.6,4.1,13,5.8
				C30,422.6,44.6,414,46,401.8c0.3,8.4,10.8,13.3,19,11.1c8.1-2.1,14.2-8.8,19.7-15.1c5.1,5.6,14.9,4.3,20.6-0.8
				c5.7-5.1,8.3-12.7,10.7-19.9c4.2,6.7,13.1,10,20.6,7.7s13.1-10,12.8-17.9c9.4,14.4,36.5,8.2,38.7-8.8
				c-1.2,8.7,11.7,13.6,18.9,8.6c7.2-5,9.1-14.8,9.2-23.5c10.3,4.9,22.7-10.3,15.8-19.4c13.3,7.8,32.5-8.1,27.4-22.6
				c11.7,0.4,15.9-19.8,5-24.1c6.6-1.8,13.9-4.1,17.1-10.1c2.3-4.4-0.2-10.8-4.1-12.8c6.9-0.9,13.2-6.2,14.7-13
				c3.4,14.1,26,17.9,33.8,5.6c9.9,10.8,31.4,4.9,34.3-9.4c-0.3,8.6,8.3,16.2,16.8,15.4c8.6-0.8,15.4-9.5,14.6-18.1
				c2.5,9,11,16.1,20.3,17c9.3,0.9,18.9-4.5,23.1-13c4.9,9.2,20.6,9.1,25.5-0.1c1.8-3.4,2.4-7.6,5.4-10c3-2.4,7.2-2,10.9-2.8
				c10.4-2.2,16.1-16,10.5-25C491.5,203.1,495.8,203,499.9,201.4z M335.1,147.5C335.1,147.5,335.1,147.5,335.1,147.5
				C335.1,147.5,335.1,147.5,335.1,147.5C335.1,147.5,335.1,147.5,335.1,147.5z"/>
		</g>
	</g>
	<g>
		<g>
			<path d="M418,74.3c2.9,0.8,4.8,3.8,4.6,6.8c-0.1,1.9-1.3,3.1-2.3,4.6c-1.4,1.9-1.8,4-1.8,6.3c0,2.1,0,4-0.8,6
				c-0.6,1.7-1.6,3.3-2.9,4.6c-2.6,2.8-6.2,4.2-10,3.9c-4.2-0.3-8.2-2.8-10.3-6.5c-1,0.8-2,1.5-2.9,2.3c3.3,3.6,3.2,9.9-0.4,13.2
				c-3.6,3.4-9.9,2.9-13.2-0.6c-1.4-1.5-4.2,0.5-2.9,2.3c3.7,5,0.7,12.9-4.9,15.1c-4,1.5-8.1-1.4-12.2-0.2c-2.3,0.7-3.8,2.4-5.1,4.3
				c-1.1,1.6-2.4,2.9-4.1,3.9c-3.6,2-8.3,2.1-11.8-0.1c-0.9-0.5-2-0.2-2.6,0.7c-2.7,4.6-8.5,7.1-13.7,5.7c-5.2-1.4-9-6.4-9.1-11.8
				c-1.2,0.2-2.5,0.3-3.7,0.5c0.9,4.9-4.5,8.1-8.6,8.6c-6.1,0.8-10.9-3.8-13.9-8.6c-2-3.2-3.5-6.7-5-10.2c-0.5-1.2-2.1-2-3.1-0.8
				c-1.9,2.2-5.4,1-7-1c-2.7-3.3-1.5-8.5-0.7-12.2c0.5-2.4-3.1-3.4-3.6-1c-1.1,5.3-2.2,12.1,2.1,16.3c3.1,3.1,8.8,4.2,11.9,0.6
				c-1-0.3-2.1-0.6-3.1-0.8c2.9,7.1,6.2,14.9,12.9,19.2c5.7,3.7,13.4,3.1,18.5-1.4c2.7-2.4,4-5.9,3.3-9.5c-0.4-2.1-3.7-1.6-3.7,0.5
				c0.1,7,5,13.6,11.8,15.4c6.8,1.8,14.4-1.4,18-7.4c-0.9,0.2-1.7,0.4-2.6,0.7c3.9,2.4,8.8,2.8,13,1.3c2.1-0.7,4-1.9,5.6-3.4
				c1.6-1.5,2.4-3.9,4.2-5.1c2.1-1.5,5.3-0.1,7.5,0.2c2,0.3,4.1,0.2,6-0.6c3.6-1.4,6.4-4.5,7.8-8c1.7-4,1.6-8.8-1-12.4
				c-1,0.8-2,1.5-2.9,2.3c4.8,5,13.5,5.4,18.5,0.6c5.1-4.8,5.1-13.5,0.4-18.5c-1.5-1.6-4,0.4-2.9,2.3c5,8.5,16.7,11,24.5,4.9
				c3.7-2.9,6-7.2,6.4-11.9c0.1-1.3,0-2.6,0.1-4c0.1-1.4,0.6-2.4,1.4-3.5c1.4-1.9,2.5-3.6,2.7-6c0.4-4.7-2.8-9.5-7.4-10.7
				C416.6,70.1,415.6,73.7,418,74.3L418,74.3z"/>
		</g>
	</g>
	<path d="M694.8,0h-4.4c-2.6,3.2-6.6,5.4-10.2,7.2c-0.9,0.4-1.2,1.8-0.7,2.6c3.7,5.2-0.6,30.1-8.5,24c-0.9-0.7-1.8-0.3-2.3,0.4
		c-0.7,0.7-0.9,1.7,0,2.5c4.3,3.9,5,11.4,0.6,15.6c-4.4,4.3-12.3,3.1-15.8-1.8c-1-1.4-3.6-1.1-3.5,0.9c0.3,6.1,0.8,13.9-3.7,18.8
		c-3.2,3.4-10.1,4.8-12.8,0.1c-1.1-1.9-3.9-0.6-3.4,1.4c1.4,6.6,1,15.6-5.4,19.6c-4.6,2.9-12.4,1.7-14.1-4.1c-0.8-2.3-4.3-1.3-3.6,1
		c2.7,7.8,0.4,18.3-7.7,22c-7.9,3.6-18.5-3-17.6-11.9c0.2-2.2-3.1-2.4-3.7-0.5c-3,9.1-6.8,21-16.3,25.3c-6.9,3.1-18.8,0.5-19.3-8.4
		c-0.1-2.4-3.8-2.4-3.8,0c0.2,5.6,0.6,12.3-2.9,17.1c-1.6,2.1-4.2,3.7-6.8,4c-2.1-1.6-4.7-2.6-7.3-2.8c-1.8-0.1-2.3,2.1-1.3,3.2
		c1.9,2.3,4.6,3.4,7.4,3.4c1.6,1.6,2.7,3.8,2.7,6.3c0,4.8-4.3,8.6-8.9,8.9c-2,0.1-2.4,2.4-0.9,3.5c8.5,6.6-0.3,20.7-4.9,27
		c-5.8,8-16.6,19.4-27.4,13.8c-1.6-0.8-3.6,0.9-2.6,2.6c3.5,6,2,13.7-2.8,18.5c-2.7,2.7-5.9,3.7-9.5,4.1c-3.3,0.4-6.6,0.8-9.2,3.2
		c-2.4,2.2-3.3,5.4-4.5,8.4c-1.4,3.2-3.5,5.6-6.8,6.8c-5.8,2.2-13,0.5-16.2-5c-0.7-1.2-2.6-1.3-3.2,0c-4,7.6-12.2,12.7-20.9,12.1
		c-8.9-0.6-16.5-7.2-19-15.6c-0.6-1.9-3.8-1.7-3.7,0.5c0.4,7.4-4.6,14.9-12.2,16.1c-7.9,1.3-15.4-5.6-15.5-13.4
		c0-2.1-3.2-2.6-3.7-0.5c-3,13.1-21.9,18.3-31.2,8.6c-0.9-0.9-2.3-0.6-2.9,0.4c-7.3,10.9-27,7.4-30.4-5.2c-0.5-1.8-3.2-1.8-3.6,0
		c-1.5,6-6.7,10.6-12.7,11.6c-1.6-0.6-3.4-0.7-5.4,0c-1.5,0.6-2,3.3,0,3.6c1.6,0.2,3.2,0.3,4.7,0.1c3.3,1.7,4.4,7.7,2.5,10.9
		c-3.2,5.2-10,6.9-15.5,8.4c-1.4,0.4-2,2.8-0.4,3.4c9,4,5.9,20.6-4.1,20.6c-1.2,0-2.2,1.2-1.8,2.4c4.2,13.2-12.4,27.2-24.6,20.5
		c-1.5-0.8-3.7,0.9-2.6,2.6c5.4,7.8-4.1,20.7-13.2,16.8c-1.3-0.5-2.8,0.1-2.8,1.6c-0.1,7.7-1.5,18.5-9.3,22.5
		c-5.7,2.9-15.7-0.1-15-7.6c0.2-2.1-3.4-2.6-3.7-0.5c-2.4,15.4-26.3,21.5-35.3,8.4c-1-1.5-3.5-1-3.5,0.9c0,7.1-4.5,13.9-11.5,16.1
		c-6.9,2.1-14.6-1-18.5-6.8c-0.9-1.4-2.9-1.1-3.4,0.4c-2.2,6.6-4.5,13.8-9.8,18.7c-4.9,4.5-13.2,6.3-18.3,1.2c-0.7-0.7-2-0.8-2.7,0
		c-5.2,6-11.2,13-19.3,14.8c-6.5,1.4-15.5-2-16.1-9.4c-0.2-1.9-3.3-2.7-3.7-0.5c-1.3,8.7-9.1,15.5-17.9,16.1
		c-5,0.3-8.9-1.9-13.2-4.2c-4.3-2.3-8.3-3.3-13.2-2.7c0,0,0,0,0,0v3.8c0.4-0.1,0.9-0.1,1.3-0.1c3.5-0.3,6.4,0.4,9.5,2
		c3.9,2.1,7.6,4.4,12.1,4.9c3.8,0.4,7.7-0.2,11.2-1.7c5.3-2.2,9.7-6.3,12.1-11.5c3,4.8,8.9,7.5,14.8,7.5c10,0,17.7-7.8,23.9-14.9
		c5.6,4.2,13.5,3.5,19.3-0.3c6.6-4.3,9.9-11.9,12.5-19.2c5.2,5.4,13.1,8,20.4,5.7c7.1-2.2,12.2-8.3,13.7-15.3
		c10.6,9.6,30.5,6,37.1-6.6c3.3,4.8,10.6,6.9,16.3,5.4c10.2-2.8,13.2-14.9,13.8-24.4c9.9,1.8,19.8-8.9,17.6-18.5
		c13.6,3.2,28.8-10.2,26.2-24.3c10.4-2.1,14.5-17.9,7.1-25.1c6.8-2.2,14.4-5.7,15.4-13.2c0.4-3.2-0.7-6.9-2.8-9.5
		c4.6-1.5,8.5-4.7,10.8-9c6.7,11.4,25.1,13.6,34,3.5c10,8.4,26.8,4.9,33.5-6c2.8,6.8,9.8,11.7,17.4,11c7.5-0.6,13.4-6.4,15.6-13.3
		c4.1,6.6,10.9,11.2,18.8,12.1c9.4,1,18.6-3.7,23.7-11.4c3.8,4.3,9.8,6,15.5,5.1c3.2-0.5,6.3-1.9,8.7-4.1c3.2-3,3.7-7.2,5.9-10.8
		c3-5.2,9.7-3.5,14.5-5.4c3.1-1.3,5.8-3.5,7.7-6.2c3.5-4.8,4.7-11,3.1-16.6c11.4,2.5,21.9-8,28.2-16.7c5.6-7.6,12.6-20.8,6.3-29.4
		c5-1.7,9-6.3,9-11.9c0-2.6-0.8-4.9-2.1-6.9c1.5-0.5,3-1.3,4.3-2.2c4.2-3.3,5.7-8.4,6.1-13.6c4.3,4.4,11.6,6,17.7,4.6
		c10.3-2.4,15.7-12.5,19.3-22.1c3.4,6.8,12.2,11,19.7,8.7c8.5-2.6,12.8-11.4,12.8-19.8c3.8,2.4,9.1,2.7,13.3,0.8
		c7.4-3.3,9.7-11.7,9.3-19.3c3.8,1.8,8.6,1.1,12.3-1.3c6.2-4,7.2-11.8,7.2-18.9c5.1,3.5,12.3,3.9,17.4-0.4
		c4.9-4.1,5.9-11.2,3.4-16.8c8-1.5,12-21.1,9-29.1C687.9,7.3,692.4,4.1,694.8,0z"/>
</g>
<g>
	<path class="st0" d="M692.6,0H0v412.3c1.9-0.2,3.8-0.4,5.7-0.1c4.7,0.7,8.6,4.1,13,5.8C30,422.6,44.6,414,46,401.8
		c0.3,8.4,10.8,13.3,19,11.1c8.1-2.1,14.2-8.8,19.7-15.1c5.1,5.6,14.9,4.3,20.6-0.8c5.7-5.1,8.3-12.7,10.7-19.9
		c4.2,6.7,13.1,10,20.6,7.7s13.1-10,12.8-17.9c9.4,14.4,36.5,8.2,38.7-8.8c-1.2,8.7,11.7,13.6,18.9,8.6c7.2-5,9.1-14.8,9.2-23.5
		c10.3,4.9,22.7-10.3,15.8-19.4c13.3,7.8,32.5-8.1,27.4-22.6c11.7,0.4,15.9-19.8,5-24.1c6.6-1.8,13.9-4.1,17.1-10.1
		c2.3-4.4-0.2-10.8-4.1-12.8c6.9-0.9,13.2-6.2,14.7-13c3.4,14.1,26,17.9,33.8,5.6c9.9,10.8,31.4,4.9,34.3-9.4
		c-0.3,8.6,8.3,16.2,16.8,15.4c8.6-0.8,15.4-9.5,14.6-18.1c2.5,9,11,16.1,20.3,17c9.3,0.9,18.9-4.5,23.1-13
		c4.9,9.2,20.6,9.1,25.5-0.1c1.8-3.4,2.4-7.6,5.4-10c3-2.4,7.2-2,10.9-2.8c10.4-2.2,16.1-16,10.5-25c11.8,6.7,24.8-6.3,32.2-17.6
		c5.4-8.2,10.1-20.8,2-26.4c5.6,0,10.8-5.2,10.8-10.8c0-3.1-1.5-6-3.7-8.1c3.4-0.2,7-2.1,8.9-5c3.5-5.1,3.4-11.8,3.2-18
		c0.2,10.2,14.9,14.6,23.6,9.2c8.7-5.4,12.5-15.9,15.7-25.7c-1.4,9.6,10.6,17.5,19.6,13.9c9-3.6,12.8-15.4,9.4-24.5
		c1.7,7.3,12.5,9.1,18.2,4.2s6.6-13.5,4.9-20.7c3,5.9,12.7,4.6,16.6-0.7c3.9-5.3,3.7-12.5,3.4-19.2c3.8,5.9,13.1,7.1,18.4,2.5
		s5.1-14.1-0.3-18.5c9.4,7.8,16.6-19.4,11.1-26.6C686.9,6,690.6,3,692.6,0z"/>
	<g>
		<g>
			<path class="st1" d="M427.7,89.1c-0.1-1.4-0.4-2.8-1.1-4.2C427,86.3,427.3,87.7,427.7,89.1z"/>
		</g>
		<g>
			<path class="st1" d="M499.9,201.4c-1.6-1.5-3.1-2.9-4.6-4.4c-29.9-28.6-56.7-67.4-67.6-108c0,0.6,0,1.2-0.1,1.7
				c-1.3-3.5-2.6-7.1-3.9-10.6c-3.5,7.1-5.3,15-5.2,22.9c-3.8,2.3-8.1,3.8-12.3,5.2c-3.5-0.5-7.1-1.4-9.8,0.7c-1.2,1-2,2.4-2.6,4
				c-0.1,0-0.1,0.1-0.2,0.1c-3.6,1.9-6.8,4.3-9.9,6.9c-1.5-0.5-2.9-1-4.3-0.3c-2.1,1.1-2.2,4-2.8,6.3c-0.1,0.3-0.1,0.5-0.2,0.8
				c-2.7,2.6-5.4,5.2-8.2,7.6c-0.5,0.1-1,0.2-1.5,0.3c-2.4,0.3-4.9-0.3-7.4-0.2c-2.5,0.1-5.1,1.1-6.2,3.3c-0.4,0.9-0.5,1.8-0.9,2.7
				c-1.3,2.8-5,3.3-8.1,2.8s-6.1-1.7-9.1-1.1c-2.6,0.5-4.8,3.3-4.2,5.6c-4.5,0.3-9.1,0.4-13.6,0.4c-1.6-1.1-3.1-2.3-4.1-3.9
				c-0.7-1-1.2-2-2.2-2.7c-2.6-1.7-5.7,0.7-8.3,2.4c-2,1.3-4.3,2.1-6.7,2.5c-3.4-1-6.6-2.4-9.5-4.3c-2.9-5.7-7.1-17-14.1-15.2
				c-0.2,0-0.3,0.1-0.5,0.2c-2.4-3.7-4.4-7.7-6-11.8c-0.8-2.2-1.8-4.6-4-5.6c-2.4-1-5.1,0.4-7.5,1.3c-17,6.5-33.4-10.4-51.2-14.3
				c-20.4-4.5-41,8.7-61.9,6.9c-10.9-1-21.7-6.1-32.4-3.6c-8.4,1.9-15.6,8.5-24.3,8.9c-10.7,0.5-20.2-8.4-30.9-7.9
				c-8.2,0.4-15.2,6.2-23.4,7.3C20.2,110,9.9,103.9,0,100.1v312.2c1.9-0.2,3.8-0.4,5.7-0.1c4.7,0.7,8.6,4.1,13,5.8
				C30,422.6,44.6,414,46,401.8c0.3,8.4,10.8,13.3,19,11.1c8.1-2.1,14.2-8.8,19.7-15.1c5.1,5.6,14.9,4.3,20.6-0.8
				c5.7-5.1,8.3-12.7,10.7-19.9c4.2,6.7,13.1,10,20.6,7.7s13.1-10,12.8-17.9c9.4,14.4,36.5,8.2,38.7-8.8
				c-1.2,8.7,11.7,13.6,18.9,8.6c7.2-5,9.1-14.8,9.2-23.5c10.3,4.9,22.7-10.3,15.8-19.4c13.3,7.8,32.5-8.1,27.4-22.6
				c11.7,0.4,15.9-19.8,5-24.1c6.6-1.8,13.9-4.1,17.1-10.1c2.3-4.4-0.2-10.8-4.1-12.8c6.9-0.9,13.2-6.2,14.7-13
				c3.4,14.1,26,17.9,33.8,5.6c9.9,10.8,31.4,4.9,34.3-9.4c-0.3,8.6,8.3,16.2,16.8,15.4c8.6-0.8,15.4-9.5,14.6-18.1
				c2.5,9,11,16.1,20.3,17c9.3,0.9,18.9-4.5,23.1-13c4.9,9.2,20.6,9.1,25.5-0.1c1.8-3.4,2.4-7.6,5.4-10c3-2.4,7.2-2,10.9-2.8
				c10.4-2.2,16.1-16,10.5-25C491.5,203.1,495.8,203,499.9,201.4z M335.1,147.5C335.1,147.5,335.1,147.5,335.1,147.5
				C335.1,147.5,335.1,147.5,335.1,147.5C335.1,147.5,335.1,147.5,335.1,147.5z"/>
		</g>
	</g>
	<g>
		<g>
			<path d="M418,74.3c2.9,0.8,4.8,3.8,4.6,6.8c-0.1,1.9-1.3,3.1-2.3,4.6c-1.4,1.9-1.8,4-1.8,6.3c0,2.1,0,4-0.8,6
				c-0.6,1.7-1.6,3.3-2.9,4.6c-2.6,2.8-6.2,4.2-10,3.9c-4.2-0.3-8.2-2.8-10.3-6.5c-1,0.8-2,1.5-2.9,2.3c3.3,3.6,3.2,9.9-0.4,13.2
				c-3.6,3.4-9.9,2.9-13.2-0.6c-1.4-1.5-4.2,0.5-2.9,2.3c3.7,5,0.7,12.9-4.9,15.1c-4,1.5-8.1-1.4-12.2-0.2c-2.3,0.7-3.8,2.4-5.1,4.3
				c-1.1,1.6-2.4,2.9-4.1,3.9c-3.6,2-8.3,2.1-11.8-0.1c-0.9-0.5-2-0.2-2.6,0.7c-2.7,4.6-8.5,7.1-13.7,5.7c-5.2-1.4-9-6.4-9.1-11.8
				c-1.2,0.2-2.5,0.3-3.7,0.5c0.9,4.9-4.5,8.1-8.6,8.6c-6.1,0.8-10.9-3.8-13.9-8.6c-2-3.2-3.5-6.7-5-10.2c-0.5-1.2-2.1-2-3.1-0.8
				c-1.9,2.2-5.4,1-7-1c-2.7-3.3-1.5-8.5-0.7-12.2c0.5-2.4-3.1-3.4-3.6-1c-1.1,5.3-2.2,12.1,2.1,16.3c3.1,3.1,8.8,4.2,11.9,0.6
				c-1-0.3-2.1-0.6-3.1-0.8c2.9,7.1,6.2,14.9,12.9,19.2c5.7,3.7,13.4,3.1,18.5-1.4c2.7-2.4,4-5.9,3.3-9.5c-0.4-2.1-3.7-1.6-3.7,0.5
				c0.1,7,5,13.6,11.8,15.4c6.8,1.8,14.4-1.4,18-7.4c-0.9,0.2-1.7,0.4-2.6,0.7c3.9,2.4,8.8,2.8,13,1.3c2.1-0.7,4-1.9,5.6-3.4
				c1.6-1.5,2.4-3.9,4.2-5.1c2.1-1.5,5.3-0.1,7.5,0.2c2,0.3,4.1,0.2,6-0.6c3.6-1.4,6.4-4.5,7.8-8c1.7-4,1.6-8.8-1-12.4
				c-1,0.8-2,1.5-2.9,2.3c4.8,5,13.5,5.4,18.5,0.6c5.1-4.8,5.1-13.5,0.4-18.5c-1.5-1.6-4,0.4-2.9,2.3c5,8.5,16.7,11,24.5,4.9
				c3.7-2.9,6-7.2,6.4-11.9c0.1-1.3,0-2.6,0.1-4c0.1-1.4,0.6-2.4,1.4-3.5c1.4-1.9,2.5-3.6,2.7-6c0.4-4.7-2.8-9.5-7.4-10.7
				C416.6,70.1,415.6,73.7,418,74.3L418,74.3z"/>
		</g>
	</g>
	<path d="M694.8,0h-4.4c-2.6,3.2-6.6,5.4-10.2,7.2c-0.9,0.4-1.2,1.8-0.7,2.6c3.7,5.2-0.6,30.1-8.5,24c-0.9-0.7-1.8-0.3-2.3,0.4
		c-0.7,0.7-0.9,1.7,0,2.5c4.3,3.9,5,11.4,0.6,15.6c-4.4,4.3-12.3,3.1-15.8-1.8c-1-1.4-3.6-1.1-3.5,0.9c0.3,6.1,0.8,13.9-3.7,18.8
		c-3.2,3.4-10.1,4.8-12.8,0.1c-1.1-1.9-3.9-0.6-3.4,1.4c1.4,6.6,1,15.6-5.4,19.6c-4.6,2.9-12.4,1.7-14.1-4.1c-0.8-2.3-4.3-1.3-3.6,1
		c2.7,7.8,0.4,18.3-7.7,22c-7.9,3.6-18.5-3-17.6-11.9c0.2-2.2-3.1-2.4-3.7-0.5c-3,9.1-6.8,21-16.3,25.3c-6.9,3.1-18.8,0.5-19.3-8.4
		c-0.1-2.4-3.8-2.4-3.8,0c0.2,5.6,0.6,12.3-2.9,17.1c-1.6,2.1-4.2,3.7-6.8,4c-2.1-1.6-4.7-2.6-7.3-2.8c-1.8-0.1-2.3,2.1-1.3,3.2
		c1.9,2.3,4.6,3.4,7.4,3.4c1.6,1.6,2.7,3.8,2.7,6.3c0,4.8-4.3,8.6-8.9,8.9c-2,0.1-2.4,2.4-0.9,3.5c8.5,6.6-0.3,20.7-4.9,27
		c-5.8,8-16.6,19.4-27.4,13.8c-1.6-0.8-3.6,0.9-2.6,2.6c3.5,6,2,13.7-2.8,18.5c-2.7,2.7-5.9,3.7-9.5,4.1c-3.3,0.4-6.6,0.8-9.2,3.2
		c-2.4,2.2-3.3,5.4-4.5,8.4c-1.4,3.2-3.5,5.6-6.8,6.8c-5.8,2.2-13,0.5-16.2-5c-0.7-1.2-2.6-1.3-3.2,0c-4,7.6-12.2,12.7-20.9,12.1
		c-8.9-0.6-16.5-7.2-19-15.6c-0.6-1.9-3.8-1.7-3.7,0.5c0.4,7.4-4.6,14.9-12.2,16.1c-7.9,1.3-15.4-5.6-15.5-13.4
		c0-2.1-3.2-2.6-3.7-0.5c-3,13.1-21.9,18.3-31.2,8.6c-0.9-0.9-2.3-0.6-2.9,0.4c-7.3,10.9-27,7.4-30.4-5.2c-0.5-1.8-3.2-1.8-3.6,0
		c-1.5,6-6.7,10.6-12.7,11.6c-1.6-0.6-3.4-0.7-5.4,0c-1.5,0.6-2,3.3,0,3.6c1.6,0.2,3.2,0.3,4.7,0.1c3.3,1.7,4.4,7.7,2.5,10.9
		c-3.2,5.2-10,6.9-15.5,8.4c-1.4,0.4-2,2.8-0.4,3.4c9,4,5.9,20.6-4.1,20.6c-1.2,0-2.2,1.2-1.8,2.4c4.2,13.2-12.4,27.2-24.6,20.5
		c-1.5-0.8-3.7,0.9-2.6,2.6c5.4,7.8-4.1,20.7-13.2,16.8c-1.3-0.5-2.8,0.1-2.8,1.6c-0.1,7.7-1.5,18.5-9.3,22.5
		c-5.7,2.9-15.7-0.1-15-7.6c0.2-2.1-3.4-2.6-3.7-0.5c-2.4,15.4-26.3,21.5-35.3,8.4c-1-1.5-3.5-1-3.5,0.9c0,7.1-4.5,13.9-11.5,16.1
		c-6.9,2.1-14.6-1-18.5-6.8c-0.9-1.4-2.9-1.1-3.4,0.4c-2.2,6.6-4.5,13.8-9.8,18.7c-4.9,4.5-13.2,6.3-18.3,1.2c-0.7-0.7-2-0.8-2.7,0
		c-5.2,6-11.2,13-19.3,14.8c-6.5,1.4-15.5-2-16.1-9.4c-0.2-1.9-3.3-2.7-3.7-0.5c-1.3,8.7-9.1,15.5-17.9,16.1
		c-5,0.3-8.9-1.9-13.2-4.2c-4.3-2.3-8.3-3.3-13.2-2.7c0,0,0,0,0,0v3.8c0.4-0.1,0.9-0.1,1.3-0.1c3.5-0.3,6.4,0.4,9.5,2
		c3.9,2.1,7.6,4.4,12.1,4.9c3.8,0.4,7.7-0.2,11.2-1.7c5.3-2.2,9.7-6.3,12.1-11.5c3,4.8,8.9,7.5,14.8,7.5c10,0,17.7-7.8,23.9-14.9
		c5.6,4.2,13.5,3.5,19.3-0.3c6.6-4.3,9.9-11.9,12.5-19.2c5.2,5.4,13.1,8,20.4,5.7c7.1-2.2,12.2-8.3,13.7-15.3
		c10.6,9.6,30.5,6,37.1-6.6c3.3,4.8,10.6,6.9,16.3,5.4c10.2-2.8,13.2-14.9,13.8-24.4c9.9,1.8,19.8-8.9,17.6-18.5
		c13.6,3.2,28.8-10.2,26.2-24.3c10.4-2.1,14.5-17.9,7.1-25.1c6.8-2.2,14.4-5.7,15.4-13.2c0.4-3.2-0.7-6.9-2.8-9.5
		c4.6-1.5,8.5-4.7,10.8-9c6.7,11.4,25.1,13.6,34,3.5c10,8.4,26.8,4.9,33.5-6c2.8,6.8,9.8,11.7,17.4,11c7.5-0.6,13.4-6.4,15.6-13.3
		c4.1,6.6,10.9,11.2,18.8,12.1c9.4,1,18.6-3.7,23.7-11.4c3.8,4.3,9.8,6,15.5,5.1c3.2-0.5,6.3-1.9,8.7-4.1c3.2-3,3.7-7.2,5.9-10.8
		c3-5.2,9.7-3.5,14.5-5.4c3.1-1.3,5.8-3.5,7.7-6.2c3.5-4.8,4.7-11,3.1-16.6c11.4,2.5,21.9-8,28.2-16.7c5.6-7.6,12.6-20.8,6.3-29.4
		c5-1.7,9-6.3,9-11.9c0-2.6-0.8-4.9-2.1-6.9c1.5-0.5,3-1.3,4.3-2.2c4.2-3.3,5.7-8.4,6.1-13.6c4.3,4.4,11.6,6,17.7,4.6
		c10.3-2.4,15.7-12.5,19.3-22.1c3.4,6.8,12.2,11,19.7,8.7c8.5-2.6,12.8-11.4,12.8-19.8c3.8,2.4,9.1,2.7,13.3,0.8
		c7.4-3.3,9.7-11.7,9.3-19.3c3.8,1.8,8.6,1.1,12.3-1.3c6.2-4,7.2-11.8,7.2-18.9c5.1,3.5,12.3,3.9,17.4-0.4
		c4.9-4.1,5.9-11.2,3.4-16.8c8-1.5,12-21.1,9-29.1C687.9,7.3,692.4,4.1,694.8,0z"/>
</g>
</svg>
