<?xml version="1.0" encoding="utf-8"?>
<!-- Generator: Adobe Illustrator 27.9.4, SVG Export Plug-In . SVG Version: 9.03 Build 54784)  -->
<svg version="1.1" id="Calque_1" xmlns="http://www.w3.org/2000/svg" xmlns:xlink="http://www.w3.org/1999/xlink" x="0px" y="0px"
	 viewBox="0 0 893 92.8" style="enable-background:new 0 0 893 92.8;" xml:space="preserve">
<style type="text/css">
	.st0{fill:#5CBC52;}
	.st1{fill:#23A993;}
	.st2{fill:#00805C;}
</style>
<g>
	<path class="st0" d="M143.6,34C143.6,34,143.6,34,143.6,34c0.2-2.2,2.3-4,4.5-4c2.2,0.1,4.2,2,4.3,4.2c-0.6-2.2-0.2-4.9,1.6-6.4
		s4.9-1.3,6,0.7c-1.5-1.6-1.1-4.5,0.7-5.7c1.8-1.2,4.7-0.3,5.5,1.7c1.2-2.6,4.3-4,7.1-3.3s4.7,3.7,4.3,6.5c2.7-1.9,7-0.9,8.7,2
		c0.4,0.7,0.7,1.5,1.4,2c0.7,0.5,1.7,0.4,2.6,0.5c5.2,0.2,9.4,6,8,10.9c-0.4,1.3-1,2.4-1.1,3.7c-0.2,1.9,0.7,3.9,0,5.6
		c-1.6,3.6-7.3,1.3-10.8,3.1c-1,0.5-1.7,1.4-2.6,2.1c-3.1,2.5-7.4,2.9-10.9,4.8c-2.2,1.2-4,2.9-6.1,4.2c-7.9,5-19.2,3-25.7-3.8
		c-6.1-6.3-7-14.3-6.5-22.6c0.2-2.6-0.2-5.4,1.7-7.4C138.3,30.5,143,29.8,143.6,34z"/>
	<g>
		<path d="M143,34.1C143,34.1,143,34.1,143,34.1c0.1,0.6,1.1,0.6,1.2,0c0.3-1.9,1.8-3.5,3.7-3.5c2,0,3.7,1.6,3.9,3.6
			c0.4-0.1,0.8-0.1,1.2-0.2c-0.5-2-0.3-4.4,1.4-5.8c1.5-1.2,4-1.1,5.1,0.6c0.3-0.3,0.7-0.5,1-0.8c-1.2-1.4-0.9-3.9,0.7-4.8
			c1.6-0.9,3.8,0,4.5,1.6c0.2,0.4,0.9,0.4,1.1,0c1.1-2.2,3.7-3.6,6.2-3c2.6,0.6,4.3,3.3,4,5.9c0,0.5,0.6,0.8,0.9,0.5
			c1.9-1.2,4.4-1.2,6.3,0.1c1.6,1.1,1.9,3.6,3.9,4.2c1.1,0.3,2.2,0.1,3.3,0.3c1.2,0.2,2.3,0.8,3.2,1.6c1.6,1.3,2.8,3.2,3.2,5.2
			c0.2,1.1,0.2,2.2-0.1,3.2c-0.4,1.3-1,2.5-1.2,3.9c-0.2,2.1,1.3,5.2-1.1,6.6c-1.6,0.9-3.9,0.6-5.7,0.7c-1.9,0.1-3.6,0.6-5.1,1.8
			c-1,0.8-1.8,1.6-2.9,2.2c-1.2,0.7-2.5,1.2-3.9,1.6c-2.3,0.8-4.6,1.6-6.6,2.9c-2.1,1.4-4,3.2-6.3,4.3c-2,1-4.3,1.6-6.6,1.8
			c-9.7,0.7-18.7-5.4-21.8-14.6c-1.8-5.3-1.5-10.7-1.2-16.1c0.1-2.6,0.8-5.1,3.4-6.1C140.7,31.1,142.6,31.9,143,34.1
			c0.1,0.8,1.3,0.5,1.2-0.3c-0.7-4.1-5.3-4.2-8-1.8c-1.9,1.6-2.1,4.1-2.2,6.4c-0.1,2.8-0.3,5.6-0.1,8.4c0.4,5.4,1.9,10.7,5.4,14.9
			c3.2,4,7.8,6.7,12.7,7.8c4.8,1,9.9,0.5,14.2-1.8c2.6-1.4,4.7-3.6,7.3-5c2.6-1.3,5.5-1.9,8.2-3.2c2.4-1.2,4-3.6,6.7-4.1
			c2.2-0.4,4.4,0,6.6-0.6c2-0.6,3.1-2.2,3.1-4.2c0-1.5-0.5-3-0.1-4.6c0.3-1.4,1-2.6,1.2-4c0.7-4.9-3.2-10-8.1-10.6
			c-0.8-0.1-1.7,0.1-2.4-0.2c-1-0.3-1.2-1.2-1.7-2c-0.6-1-1.5-1.8-2.5-2.4c-2.2-1.2-4.9-1.2-7,0.2c0.3,0.2,0.6,0.4,0.9,0.5
			c0.3-3.2-1.8-6.4-4.9-7.1c-3-0.7-6.3,0.9-7.6,3.6c0.4,0,0.7,0,1.1,0c-1.1-2.3-4.3-3.4-6.5-1.9c-2.2,1.5-2.3,4.7-0.7,6.6
			c0.5,0.5,1.3-0.2,1-0.8c-1.3-2.2-4.3-2.6-6.4-1.3c-2.5,1.5-3,4.9-2.3,7.5c0.2,0.7,1.3,0.5,1.2-0.2c-0.3-2.5-2.2-4.6-4.8-4.8
			c-2.6-0.2-4.9,1.9-5.3,4.4c0.4,0,0.8,0,1.2,0c0,0,0,0,0,0C144.1,33,142.9,33.4,143,34.1z"/>
	</g>
</g>
<g>
	<path class="st0" d="M257.1,54.9C257.1,54.9,257.1,54.9,257.1,54.9c-0.9-4,4.1-7.9,7.8-6.2c-0.8-2.5,0.4-5.6,2.7-6.8
		c2.3-1.3,5.6-0.6,7.2,1.5c-0.4-2.5,1-5.2,3.2-6.3c2.3-1.1,5.2-0.7,7,1.2c0.7-2.6,2.3-5.2,4.8-6.3c2.5-1.1,6,0.1,6.7,2.7
		c1.9-1.9,4.8-4,7.2-2.7c0.8,0.5,1.4,1.3,2.3,1.8c1.8,0.9,3.9-0.2,5.9-0.3c3.7-0.1,6.5,3.6,6.8,7.3s-1.2,7.2-2.7,10.5
		c-1.3,2.9-2.6,5.9-3.9,8.8c-1.5,3.3-3,6.7-5.8,9.1c-2.8,2.4-6.4,3.4-9.9,4.2c-8.1,1.9-16.3,3.1-24.6,3.8c-1.6,0.1-3.2,0.2-4.8-0.1
		c-3.4-0.7-6.1-3.3-7.8-6.3C258.6,69.5,250.6,52.2,257.1,54.9z"/>
	<g>
		<path d="M257,55.5C257,55.5,257,55.5,257,55.5c0.5,0.2,0.8-0.4,0.8-0.8c-0.6-3.6,3.6-6.9,6.9-5.5c0.5,0.2,1.1-0.1,0.9-0.7
			c-0.7-2.3,0.2-4.8,2.3-6c2.2-1.3,5-0.5,6.6,1.3c0.3,0.4,1.1,0.1,1.1-0.4c-0.3-2.2,0.7-4.5,2.6-5.6c2.1-1.2,4.8-0.8,6.6,0.9
			c0.3,0.3,0.9,0.2,1-0.3c0.7-2.5,2.2-5.2,4.8-6c2.1-0.7,4.8,0.2,5.5,2.4c0.1,0.4,0.7,0.6,1,0.3c1.5-1.5,4.1-3.8,6.4-2.6
			c0.9,0.5,1.5,1.4,2.5,1.9c0.9,0.4,1.8,0.4,2.8,0.3c2.4-0.3,4.5-1,6.6,0.6c1.7,1.4,2.8,3.5,2.9,5.7c0.2,2.9-0.8,5.7-1.9,8.3
			c-1.1,2.5-2.2,5-3.3,7.4c-1.9,4.3-3.6,9.3-7.4,12.3c-3.9,3.1-9.4,3.9-14.1,4.8c-5.6,1.1-11.3,2-17,2.5c-2.7,0.2-5.6,0.7-8.2-0.1
			c-2.2-0.7-4.1-2.3-5.5-4.2c-1.1-1.5-1.9-3.3-2.6-5.1c-1.1-2.6-2.1-5.3-2.7-8c-0.2-0.9-0.5-2.2-0.2-3.2
			C255.6,55,256.3,55.3,257,55.5c0.7,0.3,1.1-0.9,0.3-1.2c-2-0.8-3.3,0.3-3.3,2.3c0,2.7,1.1,5.5,2,8c2.2,5.9,5.2,12.8,12.5,13.3
			c3.2,0.2,6.5-0.3,9.7-0.7c3.1-0.4,6.2-0.8,9.3-1.3c3.1-0.5,6.2-1.2,9.3-1.9c2.5-0.6,5-1.3,7.2-2.4c5-2.6,7.1-7.6,9.3-12.4
			c1.3-2.9,2.6-5.8,3.9-8.8c1.1-2.6,2.2-5.3,2.3-8.2c0.2-4.7-3.3-9.9-8.5-9.2c-1.6,0.2-3.4,1-4.9,0.1c-1.1-0.7-1.8-1.8-3.1-2
			c-2.6-0.6-5.1,1.5-6.8,3.2c0.3,0.1,0.7,0.2,1,0.3c-0.9-2.7-3.8-3.9-6.4-3.4c-3.4,0.7-5.4,4-6.2,7c0.3-0.1,0.7-0.2,1-0.3
			c-2.1-2-5.2-2.6-7.8-1.3c-2.5,1.3-3.9,4.1-3.6,6.9c0.4-0.1,0.7-0.3,1.1-0.4c-1.9-2.3-5.4-3.1-8.1-1.5c-2.5,1.5-3.7,4.7-2.9,7.4
			c0.3-0.2,0.6-0.5,0.9-0.7c-4.4-1.9-9.6,2.2-8.8,6.9c0.3-0.3,0.5-0.5,0.8-0.8c0,0,0,0,0,0C256.6,54,256.2,55.2,257,55.5z"/>
	</g>
</g>
<g>
	<path class="st0" d="M395.2,12.1C395.2,12.1,395.2,12.1,395.2,12.1c-0.6-2.9,1.4-6.1,4.3-6.8s6.2,0.9,7.1,3.7
		c3-1.4,6.2-2.8,9.5-2.2c3.3,0.6,6.2,4.1,4.8,7.1c2.9-1.1,6.5-1.6,8.9,0.3c2.4,1.9,1.8,6.9-1.3,7.1c2.8-0.9,5.8-1.8,8.5-0.7
		c2.7,1.1,4.4,5,2.2,7c2.9-1.1,6.5-1.6,9,0.3c2.5,1.9,2.3,6.8-0.8,7.4c2.3,0.1,4.8,0.9,6.2,2.7s1.3,5-0.7,6.2c3.8-0.9,8.1,2.4,8,6.3
		c2-1.8,5.1-2.2,7.4-1c2.4,1.2,3.9,3.9,3.7,6.5c1.2-0.9,2.9,0,3.7,1.3c0.8,1.3,0.9,2.8,1.6,4.1c1.3,2.5,4.2,3.9,5.7,6.3
		c1.5,2.4-0.3,6.8-2.8,5.7c2.5,1,2.9,4.8,1.4,7s-4.3,3.4-6.9,4.2c-10.8,3.3-22.4,3.5-33.7,3.7c-6.8,0.1-13.8,0.2-20.4-1.8
		c-11.1-3.4-21.4-11.3-31-17.6c-8.3-5.5-16.3-11.1-22.4-19.1c-4.1-5.3-8.9-12.8-7.8-19.8c1-6,9.6-13.1,15.5-8.7c-1-5.4,5-8.8,9-5
		C383,9.7,392.5,5,395.2,12.1z"/>
	<g>
		<path d="M394.6,12.3C394.6,12.3,394.6,12.3,394.6,12.3c0.3,0.8,1.3,0.5,1.2-0.3c-0.4-2.6,1.3-5.4,3.8-6.1c2.6-0.7,5.4,0.9,6.4,3.3
			c0.2,0.4,0.5,0.6,0.9,0.4c2.9-1.3,6.4-3,9.7-2c2.5,0.8,4.8,3.5,3.7,6.2c-0.2,0.4,0.3,0.9,0.8,0.8c2.6-1,6.9-1.9,8.9,0.8
			c1.2,1.6,1,5.2-1.5,5.4c0.1,0.4,0.1,0.8,0.2,1.2c2.7-0.8,6.1-2,8.7-0.4c1.8,1.1,3.1,3.9,1.4,5.7c-0.4,0.4,0,1.3,0.6,1
			c2.7-1,6.8-1.9,9,0.7c1.4,1.7,1.4,5.2-1.1,5.8c-0.7,0.2-0.5,1.2,0.2,1.2c2.1,0.1,4.4,0.7,5.7,2.5c1.2,1.6,1.2,4.1-0.5,5.3
			c-0.6,0.4-0.2,1.3,0.5,1.1c3.5-0.8,7.1,2.2,7.2,5.7c0,0.6,0.7,0.8,1.1,0.4c4.2-3.5,10.3-0.2,10.1,5.1c0,0.5,0.5,0.8,0.9,0.5
			c1-0.7,2.3,0.1,2.8,1.1c0.6,1,0.8,2.2,1.2,3.2c0.7,1.8,2,3.1,3.4,4.3c1.3,1.2,3.1,2.5,3.2,4.5c0,1.4-0.8,3.8-2.6,3.1
			c-0.7-0.3-1.1,0.8-0.5,1.1c2.3,1.1,2.5,4.1,1.3,6c-1.5,2.4-4.5,3.4-7,4.2c-6.1,1.8-12.5,2.7-18.9,3.1c-6.3,0.4-12.6,0.5-18.9,0.5
			c-6.4,0-12.7-0.6-18.7-2.9c-5.6-2.1-10.7-5.2-15.7-8.4c-4.9-3.2-9.7-6.5-14.6-9.8c-9.5-6.4-18.3-13.7-24.1-23.7
			c-2.8-5-5.1-11.4-1.6-16.6c2.7-4,8.4-7.7,13-4.4c0.5,0.3,1-0.2,0.9-0.7c-0.8-4.7,4.4-7.6,8-4.4c0.5,0.4,1.1,0,1-0.6
			C383.9,10.6,392.1,6,394.6,12.3c0.3,0.7,1.5,0.4,1.2-0.3c-1.3-3.2-4.4-4.9-7.8-3.5c-3.2,1.3-5.1,4.6-4.6,8c0.3-0.2,0.7-0.4,1-0.6
			c-2-1.8-4.8-2.4-7.2-1.1c-2.4,1.3-3.3,4-2.9,6.7c0.3-0.2,0.6-0.5,0.9-0.7c-3.9-2.7-8.8-1.1-12,1.9c-1.7,1.5-3.1,3.5-3.9,5.6
			c-0.9,2.4-0.7,5.2-0.2,7.7c1.3,5.8,4.9,11,8.6,15.6c4,4.8,8.7,8.9,13.8,12.6c5.2,3.8,10.6,7.3,15.9,10.8
			c5.5,3.7,11.2,7.4,17.3,10.1c6.2,2.7,12.5,3.9,19.3,4c7.1,0.2,14.2,0,21.2-0.4c3.8-0.2,7.6-0.6,11.4-1.3c3.6-0.6,7.3-1.4,10.7-2.8
			c2.4-1,4.9-2.7,5.5-5.4c0.6-2.3-0.2-5-2.4-6.1c-0.2,0.4-0.3,0.8-0.5,1.1c1.9,0.7,3.4-0.8,4-2.6c0.7-2.4-0.3-4.3-2-5.9
			c-1-1-2.1-1.8-3-2.8c-1.2-1.3-1.5-2.8-2.1-4.5c-0.7-2-2.9-4.1-5.1-2.8c0.3,0.2,0.6,0.4,0.9,0.5c0.1-2.9-1.5-5.9-4.2-7.1
			c-2.7-1.2-5.8-0.7-8,1.2c0.4,0.1,0.7,0.3,1.1,0.4c-0.1-4.4-4.5-7.9-8.8-6.9c0.2,0.4,0.3,0.8,0.5,1.1c2-1.4,2.5-4.2,1.3-6.4
			c-1.3-2.6-4.4-3.6-7.2-3.7c0.1,0.4,0.1,0.8,0.2,1.2c3.1-0.7,3.6-4.7,2.2-7.1c-2.1-3.7-7.4-3-10.8-1.8c0.2,0.3,0.4,0.7,0.6,1
			c2-2,1.1-5.2-0.8-7c-2.9-2.6-7.3-1.4-10.6-0.3c-0.6,0.2-0.6,1.3,0.2,1.2c3.2-0.3,4.1-4.1,2.9-6.6c-1.8-4-7.4-3.3-10.7-2
			c0.3,0.3,0.5,0.5,0.8,0.8c1.2-3.1-1-6.2-3.8-7.4c-3.8-1.7-8,0.2-11.4,1.8c0.3,0.1,0.6,0.2,0.9,0.4c-1.2-3.1-4.6-5.1-7.9-4.2
			C396.1,5.6,394.1,9,394.6,12.3c0.4-0.1,0.8-0.2,1.2-0.3c0,0,0,0,0,0C395.5,11.2,394.3,11.5,394.6,12.3z"/>
	</g>
</g>
<path class="st1" d="M146.8,92.8h137.1c0.1-0.2,0.3-0.4,0.4-0.6c1.1-2.1,0-5-2.3-5.7c1.9,0.1,3.1-2.4,2.5-4.3c-0.6-1.8-2.3-3-4-4.1
	c2.1,0.9,4-2.3,2.9-4.3c-1-1.8-3.1-2.7-5.1-3.2c1,0.1,2.1-1,2.1-2.1c0-1.3-1.2-2.4-2.5-2.8s-2.6-0.2-3.9,0c1.5-1.4,2.2-3.7,1.2-5.5
	c-1-1.7-3.9-2.1-5-0.4c-0.2-1.8-0.5-3.8-1.9-5.1c-1.3-1.3-4.1-1.1-4.6,0.7c0.5-1.8-0.5-4-2.2-4.8c-1.8-0.8-4-0.1-5.1,1.5
	c0.1-2.4-3.7-3.7-5-1.7c-0.7-1.2-1.5-2.4-2.7-2.9c-1.2-0.5-3,0-3.2,1.4c-0.8-1.6-2-3.2-3.7-3.7c-1.5-0.4-3.4,0.8-3.5,2.2
	c-0.3-1.1-1.6-1.9-2.8-2c-1.4,0-2.8,0.7-4.1,1.4c0.6-1.4-0.8-3-2.3-3.2c-1.5-0.2-2.9,0.6-4.1,1.6c-0.8-3.4-6.1-4.4-8.1-1.5
	c-0.1-2-1.7-3.8-3.6-4.2c-2-0.4-4.1,0.7-5,2.4c0.4-2.1-1.7-4.1-3.9-4.3c-2.2-0.2-4.2,1-5.8,2.5c0.9-2.3-1.9-4.5-4.3-4.2
	c-2.4,0.4-4.2,2.3-5.8,4.2c0.2-2.4-3.4-3.7-5.3-2.2c-1.9,1.5-2,4.5-1.1,6.7c-0.4-1.8-3.1-2.5-4.5-1.3c-1.4,1.2-1.5,3.6-0.4,5.1
	c-1-0.9-2.7-0.6-3.6,0.4c-1,0.9-1.4,2.3-1.8,3.6c-1.5-1.6-3.5-3-5.7-2.7c-1.9,0.2-3.6,2.3-3.1,4c-0.8-1.3-2.7-1.7-4.1-1
	c-1.6,0.9-2.3,2.8-2.2,4.6c-0.3-1.3-1.8-2.1-3-1.8c-1.3,0.3-2.1,1.7-1.9,3c-3.4-0.5-7,0.4-9.7,2.6c-1-1.9-3.5-2.8-5.5-2.2
	c-4.9,1.5-4.3,8.8-2.6,12.3C137.7,78.8,142,86,146.8,92.8z"/>
<path d="M135.3,75.2c1.7,3.2,3.4,6.4,5.3,9.5c1.7,2.8,3.5,5.5,5.4,8.2h1.6c-0.7-1-1.4-1.9-2-2.9c-4-5.9-7.6-12.2-10.8-18.6
	c-1.7-3.4-2.6-10.2,2.1-11.8c1.9-0.5,3.8,0.3,4.8,1.9c0.2,0.3,0.6,0.4,0.9,0.2c2.7-2,6-2.9,9.4-2.5c0.4,0.1,0.7-0.4,0.6-0.8
	c-0.3-2.4,2.9-3.1,3.7-0.9c0.2,0.6,1.2,0.6,1.2-0.2c0-1.5,0.5-3.3,1.9-4c1.1-0.6,2.7-0.2,3.3,0.9c0.1,0.1,0.1,0.3,0.2,0.4
	c0.3,0.6,1.4,0.2,1.1-0.5c0-0.1,0-0.1-0.1-0.1c0,0,0,0,0,0c0-0.1-0.1-0.1-0.1-0.2c0,0,0-0.1-0.1-0.1c-0.6-1.6,1-3.2,2.6-3.4
	c2-0.2,3.8,1.2,5.1,2.6c0.3,0.3,0.9,0.2,1-0.3c0.3-1,0.6-2.2,1.4-3c0.7-0.8,2-1.4,3-0.6c0.5,0.4,1.4-0.1,1-0.8
	c-0.9-1.3-1.1-3.4,0.4-4.4c1.1-0.8,3-0.3,3.4,1.1c0.3,0.7,1.4,0.5,1.2-0.3c-0.8-1.9-1-4.8,1-6.1c1.5-1,4.2-0.1,4.2,1.8
	c0,0.5,0.7,0.9,1.1,0.4c1.4-1.6,2.9-3.3,5-3.9c1.9-0.5,4.8,1,4.1,3.3c-0.2,0.6,0.6,1,1,0.6c1.4-1.3,3.3-2.5,5.3-2.3
	c1.8,0.2,3.5,1.7,3.2,3.7c-0.1,0.6,0.9,0.8,1.2,0.3c1.9-3.4,7.1-2.5,7.5,1.4c0.1,0.6,0.8,0.8,1.2,0.3c1.8-2.4,6.2-1.5,6.9,1.3
	c0.1,0.4,0.6,0.6,0.9,0.4c1-0.7,2.1-1.5,3.4-1.5c1.2,0,2.5,1.1,2.1,2.4c-0.2,0.5,0.5,1,0.9,0.7c1.1-0.6,2.3-1.3,3.5-1.3
	c1.2,0,2.5,0.7,2.5,2c0,0,0,0,0,0c0,0.1,0,0.1,0,0.2c0.2,0.7,1.3,0.5,1.2-0.2c0-0.2,0-0.4-0.1-0.5c0-1.5,2.1-2.1,3.2-1.5
	c1.3,0.6,2.1,1.9,2.8,3.2c0.2,0.5,1,0.4,1.1-0.1c0.3-1.2,1.7-1.3,2.6-0.8c1,0.5,1.6,1.6,2.1,2.5c0.2,0.3,0.7,0.5,1,0.1
	c1.1-1.5,3.9-0.6,3.9,1.3c0,0.7,0.8,0.8,1.2,0.3c2.2-3.2,7-0.9,6.1,2.8c-0.2,0.8,0.9,1.1,1.2,0.3c0.5-1.4,2.6-1.2,3.5-0.4
	c1.3,1.1,1.5,3.1,1.7,4.7c0.1,0.6,0.8,0.8,1.2,0.3c0.9-1.3,3-0.9,3.8,0.3c1.1,1.6,0.2,3.7-1,4.9c-0.4,0.3-0.1,1.1,0.4,1.1
	c1.4-0.2,3.1-0.4,4.4,0.3c0.6,0.4,1.3,1.1,1.3,1.9c0,0.9-1,1.7-1.8,1.3c-0.8-0.2-1.1,0.9-0.3,1.2c0.2,0.1,0.4,0.1,0.6,0.1
	c1.7,0.4,3.7,1,4.6,2.6c0.9,1.4,0,4.4-2.1,3.7c-0.7-0.2-1,0.8-0.5,1.1c1.4,0.9,3.1,2,3.7,3.7c0.5,1.4-0.2,3.4-1.9,3.5
	c-0.7,0-0.8,1-0.2,1.2c1.2,0.5,2,1.6,2.2,2.9c0.2,1.2-0.4,2-1,2.9h1.5c0.2-0.3,0.4-0.6,0.5-1c0.6-1.9-0.1-4-1.6-5.2
	c1.2-0.7,1.8-2.2,1.8-3.6c-0.1-1.9-1.5-3.3-3-4.5c1.4-0.7,2.2-2.5,2-4c-0.3-2.2-2.3-3.4-4.2-4.1c0.7-0.7,1.1-1.9,0.7-3
	c-0.9-2.3-3.2-2.6-5.4-2.5c1.1-1.8,1.4-4.1-0.2-5.7c-1.2-1.2-3.2-1.5-4.6-0.6c-0.3-2-1-4.2-3-5c-1.1-0.4-2.3-0.4-3.3,0.1
	c-0.2-1.6-1.1-3-2.7-3.7c-1.7-0.8-3.6-0.3-5,0.9c-0.9-1.8-3.5-2.7-5.2-1.4c-0.8-1.3-1.8-2.5-3.4-2.7c-1-0.1-2,0.2-2.7,0.9
	c-1-1.6-2.5-3.2-4.5-3.1c-1.1,0.1-2.2,0.7-2.8,1.6c-0.4-0.5-1-0.9-1.7-1.1c-1.5-0.4-3,0.1-4.4,0.8c-0.2-1.1-1-2-2-2.5
	c-1.7-0.7-3.4,0-4.8,1c-1.4-2.9-5.5-3.7-8-1.7c-0.6-1.7-1.9-3.2-3.8-3.6c-1.7-0.4-3.5,0.2-4.7,1.4c-0.5-1.5-1.9-2.7-3.5-3.1
	c-2.1-0.5-4.2,0.4-5.9,1.6c-0.3-1.8-2.1-3.2-4-3.4c-2.6-0.3-4.8,1.6-6.5,3.4c-0.8-1.8-3.3-2.6-5.1-1.9c-2.2,0.9-2.9,3.3-2.7,5.5
	c-1-0.5-2.2-0.5-3.2,0c-1.8,0.9-2.2,3-1.7,4.8c-0.8-0.1-1.5,0.1-2.3,0.5c-1.2,0.7-1.8,2.1-2.3,3.4c-1.8-1.6-4.2-2.9-6.5-1.9
	c-1.3,0.5-2.3,1.7-2.6,3c-0.9-0.6-2-0.7-3.1-0.4c-1.7,0.5-2.7,2.1-3,3.7c-0.7-0.6-1.7-1-2.8-0.7c-1.4,0.4-2.2,1.6-2.3,2.9
	c-3.2-0.3-6.3,0.6-8.9,2.4c-1.4-1.7-3.6-2.5-5.8-2c-4.2,1.4-4.8,6.4-4,10.3C133,70.9,134.2,73.1,135.3,75.2z"/>
<g>
	<g>
		<path d="M215.8,80.3c-1,0-1.9-1.1-1.7-2.1c0.1-0.4,0.3-0.7,0.7-0.8c0.4-0.1,0.8,0.2,0.8,0.5c0.4-0.1,0.8-0.1,1.2-0.2
			c-0.2-1-0.2-2.1,0.3-2.9c0.4-0.8,1.1-1.4,2-1.4c0.9,0,1.5,0.6,1.8,1.4c0.4,1.1,0.1,2.3-0.3,3.3c-0.1,0.3,0.1,0.7,0.4,0.8
			c0.4,0.1,0.6-0.1,0.8-0.4c0.5-1.4,0.8-2.9,0.2-4.4c-0.5-1.1-1.6-2-2.9-1.9c-1.2,0-2.4,0.8-3,1.9c-0.7,1.2-0.7,2.7-0.5,4.1
			c0.1,0.7,1.2,0.5,1.2-0.2c0-0.9-0.7-1.7-1.6-1.8c-0.9-0.1-1.7,0.5-2.1,1.3c-0.8,1.8,0.8,4.1,2.8,4.1
			C216.7,81.6,216.7,80.4,215.8,80.3L215.8,80.3z"/>
	</g>
</g>
<g>
	<path class="st2" d="M270.4,92.8h224c0-0.5,0-1.1-0.1-1.6c-0.6-2.4-3.1-4.2-5.6-4c1.9-1,3-3.6,2.3-5.7c-0.7-2.1-3-3.6-5.1-3.3
		c1.4-2,0.9-5-1.1-6.5c-1.9-1.4-5-1-6.5,0.8c1-2.3-0.7-5-3-5.9c-2.3-1-4.9-0.6-7.3-0.3c0.1,1.2,0.3,2.3,0.4,3.5
		c-0.8-3.2-4.7-5.3-7.8-4.1c-0.2-0.7-0.6-1.4-1.1-1.9c-1.3-1.3-3.3-1.9-5.1-1.6c1.7-1.6,1.9-5.1,0.1-7c-2.3-2.5-6.1-2.9-9.6-3
		c2.1-0.8,4-2.4,4.4-4.6c0.3-2-1.4-4.2-3.4-4.2c2.4-0.6,3.1-4.4,1.4-6.5c-1.8-2.2-4.9-2.7-7.7-3.1c2.1-0.7,3.6-3,3.3-5.2
		c-0.2-2.2-2.2-4.1-4.4-4.3c2-0.2,3.8-1.5,4.7-3.2c-1.9-3.3-6.2-5-9.8-3.9c2.9-1.7,3.9-5.9,2.1-8.7s-6-3.7-8.7-1.8
		c1-3-2.1-6.4-5.3-6.2c-3.2,0.2-5.8,3-6.6,6.1c-1.9-3.2-6.8-4-9.7-1.7c-2.9,2.3-3,7.3-0.3,9.8c-2.2-2-6.2-0.9-7.4,1.8
		c-1.1,2.3-0.1,5.3,1.9,6.9c-3.7-2-8.9-0.3-10.9,3.4c0.2-1.9-1.1-4-2.9-4.8c-2.5-1-5.6,0-7.4,2c0.2-2.5-1.8-4.9-4.2-5.3
		c-2.4-0.4-5,1.3-5.6,3.8c-0.7-3.5-6.4-4.2-7.9-1c-0.7-2.3-3.3-4-5.7-3.5c-2.4,0.5-4.2,3-3.9,5.4c-0.8-2.5-3.9-3.9-6.3-2.9
		c-2.4,1-3.6,4.2-2.4,6.6c-1-2.3-3.7-3.6-6.1-2.9c-2.4,0.7-4,3.4-3.4,5.7c-0.7-2.4-3.4-3.9-5.8-3.3c-2.2,0.6-3.7,2.9-3.5,5.2
		c-0.5-1.9-3.6-2.6-5.2-1.2c-1.8,1.5-2,4.3-1.4,6.6c-1.8-2.8-6.2-2.5-8.7-0.4c-2.5,2.1-3.6,5.5-4.6,8.6c-2.2-1.4-5.3,0.3-6.3,2.7
		c-1,2.4-0.4,5.2,0.1,7.7c-1.1-3-6.1-2.5-7.3,0.4c-1.3,2.9,0.5,6.3,3.1,8.1c-2.6-0.4-5.2,2.3-4.6,4.9c-1.5-3.1-6.4-3.9-8.8-1.4
		c-1.9,2-1.7,5.4,0,7.4c-1.7-0.7-3.8-0.5-5.1,0.8c-1.8,1.8-1.7,5.2,0.3,6.8c-1.2-1.6-3.9-0.9-4.9,0.8c-1,1.7-0.8,3.8-0.3,5.7
		C269.7,90.6,270,91.7,270.4,92.8z"/>
	<g>
		<g>
			<path d="M382.4,75.3c0.2-1.6-0.5-3-0.2-4.6c0.2-1.3,0.9-3.1,2.1-3.8c0.5-0.3,1.2-0.5,1.8-0.2c0.5,0.3,0.7,0.9,0.9,1.4
				c0.4,1.5,0.3,3.2,0.4,4.7c0.1,0.8,1.1,0.8,1.2,0c0.1-1,0.8-2,1.8-2.3c1-0.3,2.2,0.1,2.6,1.1c0.2,0.5,0.4,1.2,0.4,1.8
				c0,0.7-0.3,1.1-0.8,1.6c-1.1,0.9-2.2,1.7-3.2,2.6c-0.6,0.5,0.3,1.4,0.9,0.9c0.8-0.6,1.6-1.2,2.3-1.9c0.7-0.5,1.5-1,1.8-1.9
				c0.6-1.4,0.2-3.4-0.8-4.5c-0.9-1-2.5-1.3-3.8-0.8c-1.4,0.6-2.2,1.9-2.4,3.4c0.4,0,0.8,0,1.2,0c-0.1-1.1-0.2-2.2-0.3-3.2
				c-0.1-0.8-0.1-1.6-0.4-2.3c-0.5-1.5-2-2.3-3.5-1.8c-1.7,0.5-2.6,2.2-3.2,3.8c-0.3,0.9-0.5,1.9-0.4,2.8c0.1,1,0.5,2,0.3,3
				C381.1,75.7,382.3,76.1,382.4,75.3L382.4,75.3z"/>
		</g>
	</g>
	<path d="M269.7,92.8h1.3c-0.4-1.2-0.8-2.4-1.1-3.6c-0.4-1.6-0.7-3.7,0.3-5.3c0.8-1.3,2.8-2,4-0.7c0.6,0.5,1.4-0.3,0.9-0.9
		c-1.7-1.5-2-4.3-0.3-6c1.2-1.1,2.9-1.3,4.4-0.6c0.5,0.5,1.1,0.9,1.7,1.3c0.7,0.3,1.2-0.4,0.8-1c-0.5-0.6-1.1-1-1.7-1.3
		c-1.5-1.8-1.8-4.7-0.1-6.5c2.2-2.3,6.4-1.4,7.8,1.3c0.3,0.7,1.2,0.2,1.1-0.5c-0.4-2.3,1.8-4.3,4-4.1c0.7,0.1,0.8-0.8,0.3-1.2
		c-2.2-1.6-4.5-5.3-2.5-7.9c1.3-1.7,4.9-2.3,5.8,0.1c0.3,0.7,1.4,0.5,1.2-0.3c-0.5-2.4-1.2-5.4,0.1-7.7c0.9-1.8,3.3-3.2,5.2-2.1
		c0.4,0.2,0.8,0,0.9-0.4c0.9-3,2-6.5,4.6-8.5c2.1-1.6,5.9-2,7.6,0.4c0.4,0.6,1.3,0.2,1.1-0.5c-0.4-2-0.5-4.8,1.4-6.1
		c1.3-0.9,4-0.4,4.1,1.5c0,0,0,0,0,0c0,0.1,0,0.1,0,0.2c0.1,0.7,1.3,0.5,1.2-0.2c0-0.2,0-0.3-0.1-0.5c-0.2-2,1-4.1,3-4.7
		c2.1-0.6,4.4,0.8,5.1,2.8c0.3,0.8,1.4,0.5,1.2-0.3c-0.5-2.1,0.9-4.5,3.1-5c2.1-0.5,4.3,0.8,5.2,2.7c0.3,0.7,1.4,0.1,1.1-0.6
		c-0.9-2-0.1-4.6,1.9-5.6c2.1-1,4.9,0.2,5.7,2.4c0.2,0.6,1.3,0.6,1.2-0.2c-0.2-2.2,1.2-4.4,3.4-4.8c2.1-0.4,4.3,1,4.9,3
		c0.2,0.5,0.9,0.6,1.1,0.1c1.4-2.7,6.1-2.1,6.8,0.9c0.1,0.6,1,0.6,1.2,0c0.6-2,2.6-3.5,4.7-3.3c2.3,0.2,4,2.4,3.9,4.7
		c0,0.5,0.7,0.8,1.1,0.4c1.8-1.8,4.7-3,7.1-1.7c1.4,0.8,2.3,2.5,2.2,4c-0.3,0.6-0.5,1.1-0.7,1.8c-0.2,0.7,0.7,1.1,1.1,0.5
		c0.4-0.6,0.7-1.2,0.7-1.9c1.9-3.5,6.8-4.9,10.3-2.9c0.2,0.2,0.4,0.3,0.7,0.4c0.7,0.4,1.3-0.6,0.6-1.1c-0.2-0.1-0.4-0.2-0.5-0.3
		c-2-1.4-3.1-4.1-2-6.4c1.1-2.2,4.4-3.1,6.4-1.5c0.6,0.5,1.5-0.3,0.9-0.9c-2.4-2.3-2.4-6.7,0.3-8.9c2.6-2.2,7-1.3,8.8,1.5
		c0.3,0.4,1,0.4,1.1-0.1c0.7-2.7,2.8-5.3,5.7-5.6c2.9-0.3,5.8,2.5,5,5.4c-0.1,0.5,0.5,1,0.9,0.7c2.5-1.6,6.2-1,7.9,1.5
		c1.6,2.6,0.6,6.2-1.9,7.8c-0.6,0.4-0.2,1.3,0.5,1.1c3.3-0.9,6.9,0.5,8.9,3.4c-1,1.4-2.4,2.3-4.1,2.6c-0.6,0.1-0.6,1.1,0,1.2
		c1.9,0.3,3.5,1.6,3.9,3.6c0.4,2-0.9,4-2.8,4.8c-0.5,0.2-0.7,1.1,0,1.2c2.6,0.4,6,0.8,7.5,3.2c1.1,1.6,0.8,5.1-1.6,5.3c0,0,0,0,0,0
		c-0.1,0-0.1,0-0.2,0c-0.7,0.1-0.5,1.3,0.2,1.2c0.1,0,0.1,0,0.2,0c0,0,0,0,0,0c2.1-0.4,3.5,2,3,3.8c-0.5,1.8-2.2,3-3.8,3.7
		c-0.6,0.3-0.6,1.2,0.2,1.2c3.2,0.2,7.8,0.4,9.6,3.5c0.9,1.5,0.8,4.1-0.4,5.4c-0.7,0.2-1.4,0.4-2.1,0.8c-0.5,0.3-0.3,1.2,0.3,1.2
		c0.9,0,1.6-0.3,2.2-0.8c1.6-0.3,3.3,0.2,4.4,1.4c0.4,0.4,0.6,0.8,0.9,1.3c0,0.1-0.1,0.2,0,0.4c0.4,1.6,0.2,3.2-0.6,4.7
		c-0.4,0.7,0.6,1.3,1.1,0.6c1.1-1.5,1.4-3.4,1-5.1c2.7-0.6,5.6,1.1,6.4,3.8c0.2,0.7,1.3,0.6,1.2-0.2c-0.1-1-0.2-2-0.3-3
		c2.2-0.3,4.8-0.6,6.8,0.5c1.8,1,3.1,3,2.3,5c-0.2,0.6,0.6,1.1,1,0.6c1.4-1.6,3.9-2.1,5.7-0.8c1.8,1.3,2.1,3.9,0.9,5.7
		c-0.2,0.4,0.1,1,0.5,0.9c2-0.2,4,1,4.6,3c0.5,1.9-0.4,3.8-2,4.8c-0.5,0.3-0.3,1.2,0.3,1.2c2.2-0.1,4.5,1.3,5,3.5
		c0.1,0.5,0.1,1,0.1,1.4h1.2c0-0.6,0-1.2-0.1-1.8c-0.5-2.2-2.5-3.8-4.7-4.3c1.3-1.4,1.9-3.3,1.4-5.2c-0.6-2.2-2.6-3.7-4.8-3.9
		c0.9-2.2,0.3-4.9-1.7-6.4c-1.8-1.3-4.2-1.3-6-0.2c-0.1-1.7-1.1-3.4-2.6-4.4c-2.6-1.8-6-1.3-8.9-0.9c-0.2,0-0.5,0.4-0.5,0.6
		c0,0.2,0,0.4,0.1,0.6c-1.6-1.7-4.1-2.6-6.4-2c-0.3-0.6-0.6-1.1-1.1-1.6c-1.1-1.2-2.7-1.8-4.2-1.8c0.8-1.5,0.9-3.5,0.3-5.1
		c-1.3-3.5-5.3-4.5-8.9-4.8c1.6-1.1,2.9-2.7,2.8-4.6c0-1.7-1-3.2-2.4-3.9c1.3-1.2,1.7-3.3,1.1-5.1c-0.9-3-4.2-4.1-7.2-4.6
		c1.4-1.2,2.3-2.9,2.1-4.8c-0.2-1.9-1.4-3.4-3-4.3c1.3-0.6,2.4-1.6,3.2-2.9c0.1-0.2,0.1-0.4,0-0.6c-1.8-2.9-5.1-4.6-8.4-4.5
		c1.8-2.2,2.3-5.6,0.7-8.1c-1.8-2.8-5.5-3.8-8.5-2.6c0-2.9-2.6-5.6-5.6-5.7c-3.4-0.2-6.1,2.5-7.3,5.5c-2.5-2.6-6.9-3.3-9.8-0.9
		c-2.6,2.1-3.1,5.9-1.7,8.8c-2.2-0.4-4.7,0.5-5.9,2.5c-1.2,2-0.9,4.4,0.3,6.3c-3.1-0.6-6.5,0.6-8.5,3c-0.3-1.3-1.2-2.6-2.4-3.3
		c-2.5-1.6-5.7-0.8-7.9,0.9c-0.5-2.3-2.3-4.3-4.7-4.6c-2.3-0.3-4.5,0.9-5.6,2.9c-1.7-2.5-5.8-2.9-7.8-0.7c-1.1-2-3.3-3.2-5.6-2.9
		c-2.2,0.3-3.9,2.1-4.5,4.2c-1.5-1.7-4-2.5-6.2-1.6c-1.9,0.8-3,2.8-3.1,4.8c-1.5-1.2-3.5-1.8-5.4-1.2c-1.9,0.6-3.2,2.3-3.6,4.2
		c-1.3-1.5-3.4-2.2-5.4-1.7c-2,0.5-3.3,2.2-3.8,4c-1.1-0.9-2.8-1.1-4.1-0.6c-2.4,0.9-3,3.6-2.9,6c-2-1.4-4.8-1.2-7.1-0.1
		c-3.3,1.8-4.7,5.7-5.8,9.1c-2.1-0.8-4.4,0.3-5.8,2.1c-1.6,2.1-1.5,4.7-1.1,7.2c-1.9-1.1-4.6-0.6-6.1,1c-2.6,2.7-1,6.6,1.3,9
		c-1.8,0.4-3.2,1.9-3.6,3.7c-2.3-2.2-6.4-2.6-8.7-0.1c-1.8,1.8-1.9,4.6-0.9,6.9c-1.5-0.2-3.1,0.2-4.2,1.3c-1.5,1.5-1.8,3.9-1,5.8
		c-1.1,0-2.2,0.4-3,1.1c-1.9,1.8-1.6,4.7-1,7C269,90.7,269.4,91.8,269.7,92.8z"/>
</g>
<path class="st2" d="M190.1,87.3c1.9-1,3-3.6,2.3-5.7c-0.7-2.1-3-3.6-5.1-3.3c1.4-2,0.9-5-1.1-6.5c-1.9-1.4-5-1-6.5,0.8
	c1-2.3-0.7-5-3-5.9c-2.3-1-4.9-0.6-7.3-0.3c0.1,1.2,0.3,2.3,0.4,3.5c-0.8-3.2-4.7-5.3-7.8-4.1c-0.2-0.7-0.6-1.4-1.1-1.9
	c-1.3-1.3-3.3-1.9-5.1-1.6c1.7-1.6,1.9-5.1,0.1-7c-2.3-2.5-6.1-2.9-9.6-3c2.1-0.8,4-2.4,4.4-4.6c0.3-2-1.4-4.2-3.4-4.2
	c2.4-0.6,3.1-4.4,1.4-6.5c-1.8-2.2-4.9-2.7-7.7-3.1c2.1-0.7,3.6-3,3.3-5.2c-0.2-2.2-2.2-4.1-4.4-4.3c2-0.2,3.8-1.5,4.7-3.2
	c-1.9-3.3-6.2-5-9.8-3.9c2.9-1.7,3.9-5.9,2.1-8.7s-6-3.7-8.7-1.8c1-3-2.1-6.4-5.3-6.2c-3.2,0.2-5.8,3-6.6,6.1
	c-1.9-3.2-6.8-4-9.7-1.7c-2.9,2.3-3,7.3-0.3,9.8c-2.2-2-6.2-0.9-7.4,1.8c-1.1,2.3-0.1,5.3,1.9,6.9c-3.7-2-8.9-0.3-10.9,3.4
	c0.2-1.9-1.1-4-2.9-4.8c-2.5-1-5.6,0-7.4,2c0.2-2.5-1.8-4.9-4.2-5.3c-2.4-0.4-5,1.3-5.6,3.8c-0.7-3.5-6.4-4.2-7.9-1
	c-0.7-2.3-3.3-4-5.7-3.5c-2.4,0.5-4.2,3-3.9,5.4c-0.8-2.5-3.9-3.9-6.3-2.9c-2.4,1-3.6,4.2-2.4,6.6c-1-2.3-3.7-3.6-6.1-2.9
	c-2.4,0.7-4,3.4-3.4,5.7c-0.7-2.4-3.4-3.9-5.8-3.3c-2.2,0.6-3.7,2.9-3.5,5.2c-0.5-1.9-3.6-2.6-5.2-1.2c-1.8,1.5-2,4.3-1.4,6.6
	c-1.8-2.8-6.2-2.5-8.7-0.4c-2.5,2.1-3.6,5.5-4.6,8.6c-1.5-1-3.4-0.5-4.7,0.7v46.8h195.9c0-0.5,0-1.1-0.1-1.6
	C195.2,88.8,192.6,87,190.1,87.3z"/>
<g>
	<g>
		<path d="M83.9,75.3c0.2-1.6-0.5-3-0.2-4.6c0.2-1.3,0.9-3.1,2.1-3.8c0.5-0.3,1.2-0.5,1.8-0.2c0.5,0.3,0.7,0.9,0.9,1.4
			c0.4,1.5,0.3,3.2,0.4,4.7c0.1,0.8,1.1,0.8,1.2,0c0.1-1,0.8-2,1.8-2.3c1-0.3,2.2,0.1,2.6,1.1c0.2,0.5,0.4,1.2,0.4,1.8
			c0,0.7-0.3,1.1-0.8,1.6c-1.1,0.9-2.2,1.7-3.2,2.6c-0.6,0.5,0.3,1.4,0.9,0.9c0.8-0.6,1.6-1.2,2.3-1.9c0.7-0.5,1.5-1,1.8-1.9
			c0.6-1.4,0.2-3.4-0.8-4.5c-0.9-1-2.5-1.3-3.8-0.8c-1.4,0.6-2.2,1.9-2.4,3.4c0.4,0,0.8,0,1.2,0c-0.1-1.1-0.2-2.2-0.3-3.2
			c-0.1-0.8-0.1-1.6-0.4-2.3c-0.5-1.5-2-2.3-3.5-1.8c-1.7,0.5-2.6,2.2-3.2,3.8c-0.3,0.9-0.5,1.9-0.4,2.8c0.1,1,0.5,2,0.3,3
			C82.6,75.7,83.8,76.1,83.9,75.3L83.9,75.3z"/>
	</g>
</g>
<path d="M191.7,86.8c1.3-1.4,1.9-3.3,1.4-5.2c-0.6-2.2-2.6-3.7-4.8-3.9c0.9-2.2,0.3-4.9-1.7-6.4c-1.8-1.3-4.2-1.3-6-0.2
	c-0.1-1.7-1.1-3.4-2.6-4.4c-2.6-1.8-6-1.3-8.9-0.9c-0.2,0-0.5,0.4-0.5,0.6c0,0.2,0,0.4,0.1,0.6c-1.6-1.7-4.1-2.6-6.4-2
	c-0.3-0.6-0.6-1.1-1.1-1.6c-1.1-1.2-2.7-1.8-4.2-1.8c0.8-1.5,0.9-3.5,0.3-5.1c-1.3-3.5-5.3-4.5-8.9-4.8c1.6-1.1,2.9-2.7,2.8-4.6
	c0-1.7-1-3.2-2.4-3.9c1.3-1.2,1.7-3.3,1.1-5.1c-0.9-3-4.2-4.1-7.2-4.6c1.4-1.2,2.3-2.9,2.1-4.8c-0.2-1.9-1.4-3.4-3-4.3
	c1.3-0.6,2.4-1.6,3.2-2.9c0.1-0.2,0.1-0.4,0-0.6c-1.8-2.9-5.1-4.6-8.4-4.5c1.8-2.2,2.3-5.6,0.7-8.1c-1.8-2.8-5.5-3.8-8.5-2.6
	c0-2.9-2.6-5.6-5.6-5.7c-3.4-0.2-6.1,2.5-7.3,5.5c-2.5-2.6-6.9-3.3-9.8-0.9c-2.6,2.1-3.1,5.9-1.7,8.8c-2.2-0.4-4.7,0.5-5.9,2.5
	c-1.2,2-0.9,4.4,0.3,6.3c-3.1-0.6-6.5,0.6-8.5,3c-0.3-1.3-1.2-2.6-2.4-3.3c-2.5-1.6-5.7-0.8-7.9,0.9c-0.5-2.3-2.3-4.3-4.7-4.6
	c-2.3-0.3-4.5,0.9-5.6,2.9c-1.7-2.5-5.8-2.9-7.8-0.7c-1.1-2-3.3-3.2-5.6-2.9c-2.2,0.3-3.9,2.1-4.5,4.2c-1.5-1.7-4-2.5-6.2-1.6
	c-1.9,0.8-3,2.8-3.1,4.8C41,23.6,39,23,37.1,23.6c-1.9,0.6-3.2,2.3-3.6,4.2c-1.3-1.5-3.4-2.2-5.4-1.7c-2,0.5-3.3,2.2-3.8,4
	c-1.1-0.9-2.8-1.1-4.1-0.6c-2.4,0.9-3,3.6-2.9,6c-2-1.4-4.8-1.2-7.1-0.1c-3.3,1.8-4.7,5.7-5.8,9.1C2.9,44,1.3,44.4,0,45.3v1.6
	c1.2-1.2,2.9-1.8,4.4-1c0.4,0.2,0.8,0,0.9-0.4c0.9-3,2-6.5,4.6-8.5c2.1-1.6,5.9-2,7.6,0.4c0.4,0.6,1.3,0.2,1.1-0.5
	c-0.4-2-0.5-4.8,1.4-6.1c1.3-0.9,4-0.4,4.1,1.5c0,0,0,0,0,0c0,0.1,0,0.1,0,0.2c0.1,0.7,1.3,0.5,1.2-0.2c0-0.2,0-0.3-0.1-0.5
	c-0.2-2,1-4.1,3-4.7c2.1-0.6,4.4,0.8,5.1,2.8c0.3,0.8,1.4,0.5,1.2-0.3c-0.5-2.1,0.9-4.5,3.1-5c2.1-0.5,4.3,0.8,5.2,2.7
	c0.3,0.7,1.4,0.1,1.1-0.6c-0.9-2-0.1-4.6,1.9-5.6c2.1-1,4.9,0.2,5.7,2.4c0.2,0.6,1.3,0.6,1.2-0.2c-0.2-2.2,1.2-4.4,3.4-4.8
	c2.1-0.4,4.3,1,4.9,3c0.2,0.5,0.9,0.6,1.1,0.1c1.4-2.7,6.1-2.1,6.8,0.9c0.1,0.6,1,0.6,1.2,0c0.6-2,2.6-3.5,4.7-3.3
	c2.3,0.2,4,2.4,3.9,4.7c0,0.5,0.7,0.8,1.1,0.4c1.8-1.8,4.7-3,7.1-1.7c1.4,0.8,2.3,2.5,2.2,4c-0.3,0.6-0.5,1.1-0.7,1.8
	c-0.2,0.7,0.7,1.1,1.1,0.5c0.4-0.6,0.7-1.2,0.7-1.9c1.9-3.5,6.8-4.9,10.3-2.9c0.2,0.2,0.4,0.3,0.7,0.4c0.7,0.4,1.3-0.6,0.6-1.1
	c-0.2-0.1-0.4-0.2-0.5-0.3c-2-1.4-3.1-4.1-2-6.4c1.1-2.2,4.4-3.1,6.4-1.5c0.6,0.5,1.5-0.3,0.9-0.9c-2.4-2.3-2.4-6.7,0.3-8.9
	c2.6-2.2,7-1.3,8.8,1.5c0.3,0.4,1,0.4,1.1-0.1c0.7-2.7,2.8-5.3,5.7-5.6c2.9-0.3,5.8,2.5,5,5.4c-0.1,0.5,0.5,1,0.9,0.7
	c2.5-1.6,6.2-1,7.9,1.5c1.6,2.6,0.6,6.2-1.9,7.8c-0.6,0.4-0.2,1.3,0.5,1.1c3.3-0.9,6.9,0.5,8.9,3.4c-1,1.4-2.4,2.3-4.1,2.6
	c-0.6,0.1-0.6,1.1,0,1.2c1.9,0.3,3.5,1.6,3.9,3.6c0.4,2-0.9,4-2.8,4.8c-0.5,0.2-0.7,1.1,0,1.2c2.6,0.4,6,0.8,7.5,3.2
	c1.1,1.6,0.8,5.1-1.6,5.3c0,0,0,0,0,0c-0.1,0-0.1,0-0.2,0c-0.7,0.1-0.5,1.3,0.2,1.2c0.1,0,0.1,0,0.2,0c0,0,0,0,0,0
	c2.1-0.4,3.5,2,3,3.8c-0.5,1.8-2.2,3-3.8,3.7c-0.6,0.3-0.6,1.2,0.2,1.2c3.2,0.2,7.8,0.4,9.6,3.5c0.9,1.5,0.8,4.1-0.4,5.4
	c-0.7,0.2-1.4,0.4-2.1,0.8c-0.5,0.3-0.3,1.2,0.3,1.2c0.9,0,1.6-0.3,2.2-0.8c1.6-0.3,3.3,0.2,4.4,1.4c0.4,0.4,0.6,0.8,0.9,1.3
	c0,0.1-0.1,0.2,0,0.4c0.4,1.6,0.2,3.2-0.6,4.7c-0.4,0.7,0.6,1.3,1.1,0.6c1.1-1.5,1.4-3.4,1-5.1c2.7-0.6,5.6,1.1,6.4,3.8
	c0.2,0.7,1.3,0.6,1.2-0.2c-0.1-1-0.2-2-0.3-3c2.2-0.3,4.8-0.6,6.8,0.5c1.8,1,3.1,3,2.3,5c-0.2,0.6,0.6,1.1,1,0.6
	c1.4-1.6,3.9-2.1,5.7-0.8c1.8,1.3,2.1,3.9,0.9,5.7c-0.2,0.4,0.1,1,0.5,0.9c2-0.2,4,1,4.6,3c0.5,1.9-0.4,3.8-2,4.8
	c-0.5,0.3-0.3,1.2,0.3,1.2c2.2-0.1,4.5,1.3,5,3.5c0.1,0.5,0.1,1,0.1,1.4h1.2c0-0.6,0-1.2-0.1-1.8C195.8,88.9,193.9,87.2,191.7,86.8z
	"/>
<g>
	<path class="st0" d="M749.7,34C749.7,34,749.7,34,749.7,34c-0.2-2.2-2.3-4-4.5-4c-2.2,0.1-4.2,2-4.3,4.2c0.6-2.2,0.2-4.9-1.6-6.4
		c-1.7-1.5-4.9-1.3-6,0.7c1.5-1.6,1.1-4.5-0.7-5.7s-4.7-0.3-5.5,1.7c-1.2-2.6-4.3-4-7.1-3.3s-4.7,3.7-4.3,6.5c-2.7-1.9-7-0.9-8.7,2
		c-0.4,0.7-0.7,1.5-1.4,2c-0.7,0.5-1.7,0.4-2.6,0.5c-5.2,0.2-9.4,6-7.9,10.9c0.4,1.3,1,2.4,1.1,3.7c0.2,1.9-0.7,3.9,0,5.6
		c1.6,3.6,7.3,1.3,10.8,3.1c1,0.5,1.7,1.4,2.6,2.1c3.1,2.5,7.4,2.9,10.8,4.8c2.2,1.2,4,2.9,6.1,4.2c7.9,5,19.2,3,25.7-3.8
		c6.1-6.3,7-14.3,6.5-22.6c-0.2-2.6,0.2-5.4-1.7-7.4C755,30.5,750.2,29.8,749.7,34z"/>
	<g>
		<path d="M749.1,33.8C749.1,33.8,749.1,33.8,749.1,33.8c0.4,0,0.8,0,1.2,0c-0.4-2.5-2.7-4.6-5.3-4.4c-2.6,0.2-4.5,2.3-4.8,4.8
			c-0.1,0.7,1.1,0.8,1.2,0.2c0.6-2.6,0.2-5.9-2.3-7.5c-2.1-1.3-5.1-0.9-6.4,1.3c-0.4,0.6,0.5,1.3,1,0.8c1.6-1.9,1.5-5.1-0.7-6.6
			c-2.2-1.5-5.4-0.5-6.5,1.9c0.4,0,0.7,0,1.1,0c-1.4-2.7-4.6-4.4-7.6-3.6c-3.1,0.8-5.2,4-4.9,7.1c0.3-0.2,0.6-0.4,0.9-0.5
			c-1.9-1.2-4.2-1.4-6.3-0.5c-0.9,0.4-1.7,0.9-2.4,1.6c-1,1-1.3,2.9-2.8,3.2c-1.2,0.2-2.4,0.1-3.6,0.4c-1,0.3-2,0.8-2.9,1.5
			c-1.8,1.4-3.1,3.3-3.6,5.5c-0.3,1.1-0.3,2.2-0.2,3.2c0.2,1.4,0.9,2.7,1.2,4c0.6,2.5-1.1,5.5,0.9,7.6c1.3,1.3,3.3,1.5,5,1.5
			c1.1,0,2.3,0,3.4,0.2c1.6,0.3,2.6,1,3.8,2c2,1.8,4.4,2.7,6.9,3.6c1.4,0.5,2.8,0.9,4.1,1.6c1.5,0.7,2.8,1.7,4.1,2.7
			c4.2,3.2,8.9,5,14.2,4.6c4.9-0.3,9.7-2.2,13.4-5.5c4.1-3.6,6.6-8.6,7.6-13.9c0.5-3,0.6-6.1,0.5-9.1c-0.1-2.7,0.2-6-1.3-8.3
			C755.9,29.8,749.9,29,749.1,33.8c-0.1,0.8,1.1,1.1,1.2,0.3c0.3-2,1.8-2.9,3.8-2.4c2,0.6,3.4,2.2,3.7,4.2c0.4,2.4,0.4,5,0.4,7.5
			c0,2.4-0.1,4.8-0.6,7.2c-1.8,9.7-9.5,17.3-19.5,18.1c-4.7,0.4-9.1-1-12.9-3.8c-2.1-1.5-4-3.1-6.4-4c-2.3-1-4.8-1.5-7.1-2.7
			c-2-1.1-3.4-3.1-5.6-3.7c-1.8-0.5-3.7-0.4-5.5-0.5c-2.3-0.2-4.2-0.9-4.1-3.5c0-1.2,0.4-2.4,0.3-3.7c-0.1-1.3-0.7-2.5-1.1-3.7
			c-1.5-5,2.6-10.2,7.7-10.4c1.1,0,2.2-0.1,3.1-1c0.8-0.9,1.1-2,2-2.9c1.9-1.7,4.8-2,6.9-0.6c0.4,0.2,1-0.1,0.9-0.5
			c-0.2-2.6,1.4-5.3,4-5.9c2.5-0.6,5.1,0.8,6.2,3c0.2,0.4,0.9,0.4,1.1,0c0.8-1.6,2.9-2.5,4.5-1.6c1.7,1,1.9,3.4,0.7,4.8
			c0.3,0.3,0.7,0.5,1,0.8c1-1.7,3.6-1.8,5-0.6c1.7,1.4,1.9,3.8,1.4,5.8c0.4,0.1,0.8,0.1,1.2,0.2c0.2-1.9,1.9-3.6,3.9-3.6
			c2,0,3.5,1.6,3.7,3.5c0.1,0.6,1.1,0.6,1.2,0c0,0,0,0,0,0C750.4,33.4,749.2,33,749.1,33.8z"/>
	</g>
</g>
<g>
	<path class="st0" d="M636.3,54.9C636.3,54.9,636.3,54.9,636.3,54.9c0.9-4-4.1-7.9-7.8-6.2c0.8-2.5-0.4-5.6-2.7-6.8
		s-5.5-0.6-7.2,1.5c0.4-2.5-1-5.2-3.2-6.3c-2.3-1.1-5.2-0.7-7,1.2c-0.7-2.6-2.3-5.2-4.8-6.3c-2.5-1.1-6,0.1-6.7,2.7
		c-1.9-1.9-4.8-4-7.2-2.7c-0.8,0.5-1.4,1.3-2.3,1.8c-1.8,0.9-3.9-0.2-5.9-0.3c-3.7-0.1-6.5,3.6-6.8,7.3c-0.3,3.7,1.2,7.2,2.7,10.5
		c1.3,2.9,2.6,5.9,3.9,8.8c1.5,3.3,3,6.7,5.8,9.1c2.8,2.4,6.4,3.4,9.9,4.2c8.1,1.9,16.3,3.1,24.5,3.8c1.6,0.1,3.2,0.2,4.8-0.1
		c3.4-0.7,6.1-3.3,7.7-6.3C634.9,69.5,642.8,52.2,636.3,54.9z"/>
	<g>
		<path d="M636,54.4C636,54.4,636,54.4,636,54.4c0.3,0.2,0.6,0.5,0.9,0.7c0.8-4.7-4.4-8.8-8.7-6.9c0.3,0.2,0.6,0.5,0.9,0.7
			c0.8-2.8-0.3-6-2.9-7.4c-2.6-1.5-6.2-0.8-8.1,1.5c0.4,0.1,0.7,0.3,1.1,0.4c0.3-2.7-1.1-5.6-3.6-6.9c-2.6-1.3-5.7-0.7-7.8,1.3
			c0.3,0.1,0.7,0.2,1,0.3c-0.9-3-2.9-6.3-6.2-7c-2.6-0.5-5.6,0.8-6.4,3.4c0.3-0.1,0.7-0.2,1-0.3c-1.6-1.5-3.6-3.3-5.9-3.3
			c-1,0-1.8,0.4-2.6,0.9c-0.5,0.4-0.9,0.9-1.4,1.2c-0.9,0.6-1.9,0.5-2.9,0.3c-2.3-0.4-4.3-0.8-6.4,0.5c-1.7,1.1-3,2.9-3.6,4.9
			c-1.7,5.4,1.6,11.2,3.8,16c1.2,2.8,2.4,5.6,3.7,8.3c1.1,2.3,2.4,4.5,4.3,6.2c4,3.7,9.8,4.6,14.9,5.7c6.3,1.3,12.6,2.2,19,2.7
			c2.8,0.2,5.6,0.5,8.3-0.6c2.1-0.9,3.9-2.5,5.2-4.4c1.4-1.9,2.2-4.1,3.1-6.2c1.2-2.9,2.4-6,2.7-9.1c0.2-2.3-0.8-4.2-3.3-3.2
			c-0.7,0.3-0.4,1.5,0.3,1.2c0.5-0.2,1.2-0.5,1.6,0.1c0.4,0.6,0.1,1.8,0,2.4c-0.4,2.5-1.3,4.9-2.2,7.3c-0.7,1.7-1.4,3.4-2.2,5.1
			c-0.9,1.7-2.1,3.2-3.6,4.4c-2.2,1.7-4.6,2.1-7.3,2c-5.7-0.3-11.4-1.1-17-2.1c-2.7-0.5-5.4-1-8.1-1.6c-2.3-0.5-4.7-1.1-6.9-2.1
			c-4.6-2.1-6.8-6.2-8.8-10.6c-1.1-2.5-2.2-5-3.3-7.4c-1.1-2.5-2.3-5-3-7.7c-0.7-2.7-0.7-5.6,0.8-8c1.5-2.3,3.7-3.4,6.4-2.8
			c1.1,0.2,2.3,0.6,3.5,0.4c1.1-0.2,1.9-0.8,2.7-1.5c2.5-2.3,5.3-0.1,7.3,1.9c0.3,0.3,0.9,0.2,1-0.3c0.7-2.2,3.4-3.1,5.5-2.4
			c2.6,0.8,4.1,3.5,4.8,6c0.1,0.5,0.7,0.6,1,0.3c1.7-1.6,4.5-2.1,6.6-0.9c2,1.1,2.9,3.4,2.6,5.6c-0.1,0.5,0.7,0.8,1.1,0.4
			c1.6-1.9,4.4-2.6,6.6-1.3c2.1,1.2,3,3.8,2.3,6c-0.2,0.6,0.4,0.9,0.9,0.7c3.3-1.4,7.5,1.9,6.9,5.5c-0.1,0.6,0.4,0.9,0.9,0.7
			c0,0,0,0,0,0C637.3,55.2,636.7,54.1,636,54.4z"/>
	</g>
</g>
<path class="st1" d="M746.5,92.8H609.6c-0.1-0.2-0.3-0.4-0.4-0.6c-1.1-2.1,0-5,2.3-5.7c-1.9,0.1-3.1-2.4-2.5-4.3
	c0.6-1.8,2.3-3,4-4.1c-2.1,0.9-4-2.3-2.9-4.3c1-1.8,3.1-2.7,5.1-3.2c-1,0.1-2.1-1-2.1-2.1c0-1.3,1.2-2.4,2.4-2.8s2.6-0.2,3.9,0
	c-1.5-1.4-2.2-3.7-1.2-5.5c1-1.7,3.9-2.1,5-0.4c0.2-1.8,0.5-3.8,1.9-5.1c1.3-1.3,4.1-1.1,4.5,0.7c-0.5-1.8,0.5-4,2.2-4.8
	c1.8-0.8,4-0.1,5.1,1.5c-0.1-2.4,3.7-3.7,5-1.7c0.7-1.2,1.5-2.4,2.7-2.9c1.2-0.5,3,0,3.2,1.4c0.8-1.6,2-3.2,3.7-3.7
	c1.5-0.4,3.4,0.8,3.5,2.2c0.3-1.1,1.6-1.9,2.8-2c1.4,0,2.8,0.7,4.1,1.4c-0.6-1.4,0.8-3,2.3-3.2c1.5-0.2,2.9,0.6,4.1,1.6
	c0.8-3.4,6.1-4.4,8-1.5c0.1-2,1.7-3.8,3.6-4.2c1.9-0.4,4.1,0.7,5,2.4c-0.4-2.1,1.7-4.1,3.9-4.3c2.2-0.2,4.2,1,5.8,2.5
	c-0.9-2.3,1.9-4.5,4.3-4.2c2.4,0.4,4.2,2.3,5.8,4.2c-0.2-2.4,3.4-3.7,5.3-2.2c1.9,1.5,2,4.5,1.1,6.7c0.4-1.8,3.1-2.5,4.5-1.3
	c1.4,1.2,1.5,3.6,0.4,5.1c1-0.9,2.7-0.6,3.6,0.4c1,0.9,1.4,2.3,1.8,3.6c1.5-1.6,3.5-3,5.7-2.7c1.9,0.2,3.6,2.3,3.1,4
	c0.8-1.3,2.7-1.7,4.1-1c1.6,0.9,2.3,2.8,2.2,4.6c0.3-1.3,1.8-2.1,3-1.8c1.3,0.3,2.1,1.7,1.9,3c3.4-0.5,7,0.4,9.7,2.6
	c1-1.9,3.5-2.8,5.5-2.2c4.9,1.5,4.3,8.8,2.6,12.3C755.6,78.8,751.3,86,746.5,92.8z"/>
<path d="M757.9,75.2c-1.7,3.2-3.4,6.4-5.3,9.5c-1.7,2.8-3.5,5.5-5.3,8.2h-1.6c0.7-1,1.4-1.9,2-2.9c4-5.9,7.6-12.2,10.7-18.6
	c1.7-3.4,2.6-10.2-2.1-11.8c-1.9-0.5-3.8,0.3-4.8,1.9c-0.2,0.3-0.6,0.4-0.9,0.2c-2.7-2-6-2.9-9.4-2.5c-0.4,0.1-0.7-0.4-0.6-0.8
	c0.3-2.4-2.9-3.1-3.7-0.9c-0.2,0.6-1.2,0.6-1.2-0.2c0-1.5-0.5-3.3-1.9-4c-1.1-0.6-2.7-0.2-3.3,0.9c-0.1,0.1-0.1,0.3-0.2,0.4
	c-0.3,0.6-1.4,0.2-1.1-0.5c0-0.1,0-0.1,0.1-0.1c0,0,0,0,0,0c0-0.1,0.1-0.1,0.1-0.2c0,0,0-0.1,0-0.1c0.6-1.6-1-3.2-2.6-3.4
	c-2-0.2-3.8,1.2-5.1,2.6c-0.3,0.3-0.9,0.2-1-0.3c-0.3-1-0.6-2.2-1.4-3c-0.7-0.8-2-1.4-3-0.6c-0.5,0.4-1.4-0.1-1-0.8
	c0.9-1.3,1.1-3.4-0.4-4.4c-1.1-0.8-3-0.3-3.3,1.1c-0.3,0.7-1.4,0.5-1.2-0.3c0.8-1.9,1-4.8-1-6.1c-1.5-1-4.2-0.1-4.1,1.8
	c0,0.5-0.7,0.9-1.1,0.4c-1.4-1.6-2.9-3.3-4.9-3.9c-1.9-0.5-4.8,1-4.1,3.3c0.2,0.6-0.6,1-1,0.6c-1.4-1.3-3.3-2.5-5.3-2.3
	c-1.8,0.2-3.5,1.7-3.2,3.7c0.1,0.6-0.9,0.8-1.2,0.3c-1.9-3.4-7-2.5-7.4,1.4c-0.1,0.6-0.8,0.8-1.2,0.3c-1.8-2.4-6.2-1.5-6.9,1.3
	c-0.1,0.4-0.6,0.6-0.9,0.4c-1-0.7-2.1-1.5-3.4-1.5c-1.2,0-2.5,1.1-2.1,2.4c0.2,0.5-0.5,1-0.9,0.7c-1.1-0.6-2.3-1.3-3.5-1.3
	c-1.2,0-2.5,0.7-2.5,2c0,0,0,0,0,0c0,0.1,0,0.1,0,0.2c-0.2,0.7-1.3,0.5-1.2-0.2c0-0.2,0-0.4,0.1-0.5c0-1.5-2.1-2.1-3.2-1.5
	c-1.3,0.6-2.1,1.9-2.8,3.2c-0.2,0.5-1,0.4-1.1-0.1c-0.3-1.2-1.7-1.3-2.6-0.8c-1,0.5-1.6,1.6-2.1,2.5c-0.2,0.3-0.7,0.5-1,0.1
	c-1.1-1.5-3.9-0.6-3.9,1.3c0,0.7-0.8,0.8-1.2,0.3c-2.2-3.2-7-0.9-6.1,2.8c0.2,0.8-0.9,1.1-1.2,0.3c-0.5-1.4-2.6-1.2-3.5-0.4
	c-1.3,1.1-1.5,3.1-1.7,4.7c-0.1,0.6-0.8,0.8-1.2,0.3c-0.9-1.3-3-0.9-3.8,0.3c-1.1,1.6-0.2,3.7,1,4.9c0.4,0.3,0.1,1.1-0.4,1.1
	c-1.4-0.2-3.1-0.4-4.4,0.3c-0.6,0.4-1.3,1.1-1.3,1.9c0,0.9,1,1.7,1.8,1.3c0.8-0.2,1.1,0.9,0.3,1.2c-0.2,0.1-0.4,0.1-0.6,0.1
	c-1.7,0.4-3.7,1-4.6,2.6c-0.9,1.4,0,4.4,2.1,3.7c0.7-0.2,1,0.8,0.5,1.1c-1.4,0.9-3.1,2-3.7,3.7c-0.5,1.4,0.2,3.4,1.9,3.5
	c0.7,0,0.8,1,0.2,1.2c-1.2,0.5-2,1.6-2.2,2.9c-0.2,1.2,0.4,2,1,2.9h-1.5c-0.2-0.3-0.4-0.6-0.5-1c-0.6-1.9,0.1-4,1.6-5.2
	c-1.2-0.7-1.8-2.2-1.8-3.6c0.1-1.9,1.5-3.3,3-4.5c-1.4-0.7-2.2-2.5-2-4c0.3-2.2,2.2-3.4,4.2-4.1c-0.7-0.7-1.1-1.9-0.7-3
	c0.9-2.3,3.2-2.6,5.4-2.5c-1.1-1.8-1.4-4.1,0.2-5.7c1.2-1.2,3.2-1.5,4.6-0.6c0.3-2,1-4.2,3-5c1.1-0.4,2.3-0.4,3.2,0.1
	c0.2-1.6,1.1-3,2.7-3.7c1.7-0.8,3.6-0.3,5,0.9c0.9-1.8,3.5-2.7,5.2-1.4c0.8-1.3,1.8-2.5,3.4-2.7c1-0.1,2,0.2,2.7,0.9
	c1-1.6,2.5-3.2,4.5-3.1c1.1,0.1,2.2,0.7,2.8,1.6c0.4-0.5,1-0.9,1.7-1.1c1.5-0.4,3,0.1,4.4,0.8c0.2-1.1,1-2,2-2.5
	c1.6-0.7,3.4,0,4.8,1c1.4-2.9,5.5-3.7,8-1.7c0.6-1.7,1.9-3.2,3.8-3.6c1.7-0.4,3.5,0.2,4.7,1.4c0.5-1.5,1.9-2.7,3.5-3.1
	c2.1-0.5,4.2,0.4,5.9,1.6c0.3-1.8,2.1-3.2,4-3.4c2.6-0.3,4.8,1.6,6.5,3.4c0.8-1.8,3.3-2.6,5.1-1.9c2.2,0.9,2.9,3.3,2.7,5.5
	c1-0.5,2.2-0.5,3.2,0c1.8,0.9,2.2,3,1.7,4.8c0.8-0.1,1.5,0.1,2.2,0.5c1.2,0.7,1.8,2.1,2.3,3.4c1.8-1.6,4.2-2.9,6.5-1.9
	c1.3,0.5,2.3,1.7,2.6,3c0.9-0.6,2-0.7,3.1-0.4c1.7,0.5,2.7,2.1,3,3.7c0.7-0.6,1.7-1,2.8-0.7c1.4,0.4,2.2,1.6,2.3,2.9
	c3.2-0.3,6.3,0.6,8.9,2.4c1.4-1.7,3.6-2.5,5.8-2c4.2,1.4,4.8,6.4,4,10.3C760.3,70.9,759,73.1,757.9,75.2z"/>
<g>
	<g>
		<path d="M677.5,81.6c1.9,0,3.6-2.3,2.7-4.2c-0.4-0.8-1.2-1.4-2.1-1.3c-0.9,0.1-1.6,0.9-1.6,1.8c0,0.7,1.1,0.9,1.2,0.2
			c0.2-1.4,0.2-2.8-0.5-4.1c-0.6-1.1-1.8-1.8-3-1.9c-1.3,0-2.4,0.8-2.9,1.9c-0.6,1.4-0.4,3,0.2,4.4c0.1,0.3,0.4,0.5,0.8,0.4
			c0.3-0.1,0.6-0.5,0.4-0.8c-0.4-1-0.7-2.2-0.3-3.3c0.3-0.8,0.9-1.4,1.8-1.4c0.8,0,1.6,0.6,2,1.4c0.5,0.9,0.5,2,0.3,3
			c0.4,0.1,0.8,0.1,1.2,0.2c0-0.3,0.3-0.6,0.6-0.6c0.4,0,0.7,0.5,0.8,0.8c0.2,1-0.7,2.1-1.7,2.1C676.7,80.4,676.7,81.6,677.5,81.6
			L677.5,81.6z"/>
	</g>
</g>
<g>
	<path class="st2" d="M623.1,92.8H399.4c0-0.5,0-1.1,0.1-1.6c0.6-2.4,3.1-4.2,5.6-4c-1.9-1-3-3.6-2.3-5.7c0.7-2.1,3-3.6,5.1-3.3
		c-1.4-2-0.9-5,1.1-6.5c1.9-1.4,5-1,6.5,0.8c-1-2.3,0.7-5,3-5.9c2.3-1,4.9-0.6,7.3-0.3c-0.1,1.2-0.3,2.3-0.4,3.5
		c0.8-3.2,4.7-5.3,7.7-4.1c0.2-0.7,0.6-1.4,1.1-1.9c1.3-1.3,3.3-1.9,5.1-1.6c-1.7-1.6-1.9-5.1-0.1-7c2.3-2.5,6.1-2.9,9.6-3
		c-2.1-0.8-4-2.4-4.4-4.6c-0.3-2,1.4-4.2,3.3-4.2c-2.4-0.6-3.1-4.4-1.4-6.5c1.8-2.2,4.9-2.7,7.6-3.1c-2.1-0.7-3.5-3-3.3-5.2
		c0.2-2.2,2.2-4.1,4.4-4.3c-1.9-0.2-3.8-1.5-4.7-3.2c1.9-3.3,6.1-5,9.8-3.9c-2.9-1.7-3.9-5.9-2.1-8.7s6-3.7,8.7-1.8
		c-1-3,2.1-6.4,5.3-6.2c3.2,0.2,5.8,3,6.6,6.1c1.9-3.2,6.8-4,9.7-1.7c2.9,2.3,3,7.3,0.3,9.8c2.2-2,6.2-0.9,7.4,1.8
		c1.1,2.3,0.1,5.3-1.9,6.9c3.7-2,8.9-0.3,10.9,3.4c-0.2-1.9,1.1-4,2.9-4.8c2.5-1,5.5,0,7.4,2c-0.2-2.5,1.8-4.9,4.2-5.3
		c2.4-0.4,5,1.3,5.6,3.8c0.7-3.5,6.4-4.2,7.9-1c0.7-2.3,3.3-4,5.7-3.5c2.4,0.5,4.2,3,3.9,5.4c0.8-2.5,3.9-3.9,6.3-2.9
		c2.4,1,3.6,4.2,2.4,6.6c1-2.3,3.7-3.6,6.1-2.9c2.4,0.7,4,3.4,3.4,5.7c0.7-2.4,3.4-3.9,5.8-3.3c2.2,0.6,3.7,2.9,3.5,5.2
		c0.5-1.9,3.6-2.6,5.2-1.2c1.8,1.5,1.9,4.3,1.4,6.6c1.8-2.8,6.2-2.5,8.7-0.4c2.5,2.1,3.6,5.5,4.6,8.6c2.2-1.4,5.3,0.3,6.3,2.7
		c1,2.4,0.4,5.2-0.1,7.7c1.1-3,6.1-2.5,7.3,0.4c1.3,2.9-0.5,6.3-3.1,8.1c2.6-0.4,5.2,2.3,4.6,4.9c1.5-3.1,6.4-3.9,8.8-1.4
		c1.9,2,1.7,5.4,0,7.4c1.7-0.7,3.8-0.5,5.1,0.8c1.8,1.8,1.7,5.2-0.3,6.8c1.2-1.6,3.9-0.9,4.9,0.8c1,1.7,0.8,3.8,0.3,5.7
		C623.8,90.6,623.5,91.7,623.1,92.8z"/>
	<g>
		<g>
			<path d="M512.4,74.9c-0.1-1,0.2-2,0.3-3c0.1-1-0.1-1.9-0.4-2.8c-0.6-1.6-1.6-3.3-3.3-3.8c-4.2-1.2-3.9,5-4.1,7.4
				c0.4,0,0.8,0,1.2,0c-0.2-1.5-1-2.8-2.4-3.4c-1.3-0.5-2.9-0.3-3.8,0.8c-1,1.1-1.4,3.1-0.8,4.5c0.3,0.8,1.1,1.3,1.7,1.8
				c0.8,0.6,1.6,1.3,2.4,1.9c0.6,0.5,1.5-0.4,0.9-0.9c-1.1-0.8-2.1-1.7-3.2-2.5c-0.5-0.4-0.9-0.8-0.9-1.5c0-0.6,0.1-1.3,0.4-1.9
				c0.4-1,1.5-1.4,2.5-1.1c1,0.3,1.7,1.3,1.9,2.3c0.1,0.8,1.2,0.8,1.2,0c0.1-1.5,0.1-3.1,0.4-4.5c0.1-0.5,0.3-1.1,0.7-1.5
				c0.6-0.4,1.3-0.3,1.9,0.1c1.2,0.7,1.9,2.4,2.2,3.8c0.3,1.6-0.5,3.1-0.2,4.7C511.3,76.1,512.5,75.7,512.4,74.9L512.4,74.9z"/>
		</g>
	</g>
	<path d="M623.7,92.8h-1.3c0.4-1.2,0.8-2.4,1.1-3.6c0.4-1.6,0.7-3.7-0.3-5.3c-0.8-1.3-2.8-2-4-0.7c-0.6,0.5-1.4-0.3-0.9-0.9
		c1.7-1.5,2-4.3,0.3-6c-1.2-1.1-2.9-1.3-4.3-0.6c-0.5,0.5-1.1,0.9-1.7,1.3c-0.7,0.3-1.2-0.4-0.8-1c0.5-0.6,1-1,1.7-1.3
		c1.5-1.8,1.8-4.7,0.1-6.5c-2.2-2.3-6.4-1.4-7.8,1.3c-0.3,0.7-1.2,0.2-1.1-0.5c0.4-2.3-1.8-4.3-4-4.1c-0.7,0.1-0.8-0.8-0.3-1.2
		c2.2-1.6,4.4-5.3,2.5-7.9c-1.3-1.7-4.9-2.3-5.8,0.1c-0.3,0.7-1.4,0.5-1.2-0.3c0.5-2.4,1.2-5.4-0.1-7.7c-0.9-1.8-3.3-3.2-5.2-2.1
		c-0.4,0.2-0.8,0-0.9-0.4c-0.9-3-2-6.5-4.6-8.5c-2.1-1.6-5.8-2-7.6,0.4c-0.4,0.6-1.3,0.2-1.1-0.5c0.4-2,0.5-4.8-1.4-6.1
		c-1.3-0.9-4-0.4-4.1,1.5c0,0,0,0,0,0c0,0.1,0,0.1,0,0.2c-0.1,0.7-1.2,0.5-1.2-0.2c0-0.2,0-0.3,0.1-0.5c0.2-2-1-4.1-3-4.7
		c-2.1-0.6-4.4,0.8-5.1,2.8c-0.3,0.8-1.4,0.5-1.2-0.3c0.5-2.1-0.9-4.5-3.1-5c-2.1-0.5-4.3,0.8-5.2,2.7c-0.3,0.7-1.4,0.1-1.1-0.6
		c0.9-2,0.1-4.6-1.9-5.6c-2.1-1-4.9,0.2-5.7,2.4c-0.2,0.6-1.3,0.6-1.2-0.2c0.2-2.2-1.2-4.4-3.4-4.8c-2.1-0.4-4.3,1-4.9,3
		c-0.2,0.5-0.9,0.6-1.1,0.1c-1.4-2.7-6.1-2.1-6.8,0.9c-0.1,0.6-1,0.6-1.2,0c-0.6-2-2.6-3.5-4.7-3.3c-2.3,0.2-4,2.4-3.9,4.7
		c0,0.5-0.7,0.8-1.1,0.4c-1.8-1.8-4.7-3-7.1-1.7c-1.4,0.8-2.3,2.5-2.2,4c0.3,0.6,0.5,1.1,0.6,1.8c0.2,0.7-0.7,1.1-1.1,0.5
		c-0.4-0.6-0.7-1.2-0.7-1.9c-1.9-3.5-6.8-4.9-10.3-2.9c-0.2,0.2-0.4,0.3-0.7,0.4c-0.7,0.4-1.3-0.6-0.6-1.1c0.2-0.1,0.4-0.2,0.5-0.3
		c2-1.4,3.1-4.1,2-6.4c-1.1-2.2-4.4-3.1-6.4-1.5c-0.6,0.5-1.5-0.3-0.9-0.9c2.4-2.3,2.4-6.7-0.3-8.9c-2.6-2.2-6.9-1.3-8.7,1.5
		c-0.3,0.4-1,0.4-1.1-0.1c-0.7-2.7-2.8-5.3-5.7-5.6c-2.9-0.3-5.8,2.5-5,5.4c0.1,0.5-0.5,1-0.9,0.7c-2.5-1.6-6.2-1-7.9,1.5
		c-1.6,2.6-0.6,6.2,1.9,7.8c0.6,0.4,0.2,1.3-0.5,1.1c-3.3-0.9-6.9,0.5-8.9,3.4c1,1.4,2.4,2.3,4.1,2.6c0.6,0.1,0.6,1.1,0,1.2
		c-1.9,0.3-3.5,1.6-3.9,3.6c-0.4,2,0.9,4,2.8,4.8c0.5,0.2,0.7,1.1,0,1.2c-2.6,0.4-6,0.8-7.5,3.2c-1.1,1.6-0.8,5.1,1.6,5.3
		c0,0,0,0,0,0c0.1,0,0.1,0,0.2,0c0.7,0.1,0.5,1.3-0.2,1.2c-0.1,0-0.1,0-0.2,0c0,0,0,0,0,0c-2.1-0.4-3.5,2-3,3.8
		c0.5,1.8,2.2,3,3.8,3.7c0.6,0.3,0.6,1.2-0.2,1.2c-3.2,0.2-7.7,0.4-9.6,3.5c-0.9,1.5-0.8,4.1,0.4,5.4c0.7,0.2,1.4,0.4,2.1,0.8
		c0.5,0.3,0.3,1.2-0.3,1.2c-0.9,0-1.6-0.3-2.2-0.8c-1.6-0.3-3.3,0.2-4.4,1.4c-0.4,0.4-0.6,0.8-0.9,1.3c0,0.1,0.1,0.2,0,0.4
		c-0.4,1.6-0.2,3.2,0.5,4.7c0.4,0.7-0.6,1.3-1.1,0.6c-1-1.5-1.4-3.4-1-5.1c-2.7-0.6-5.6,1.1-6.4,3.8c-0.2,0.7-1.3,0.6-1.2-0.2
		c0.1-1,0.2-2,0.3-3c-2.2-0.3-4.7-0.6-6.8,0.5c-1.8,1-3.1,3-2.3,5c0.2,0.6-0.6,1.1-1,0.6c-1.4-1.6-3.9-2.1-5.7-0.8
		c-1.8,1.3-2,3.9-0.9,5.7c0.2,0.4-0.1,1-0.5,0.9c-2-0.2-4,1-4.6,3c-0.5,1.9,0.4,3.8,2,4.8c0.5,0.3,0.3,1.2-0.3,1.2
		c-2.2-0.1-4.5,1.3-5,3.5c-0.1,0.5-0.1,1-0.1,1.4h-1.2c0-0.6,0-1.2,0.1-1.8c0.5-2.2,2.5-3.8,4.7-4.3c-1.3-1.4-1.9-3.3-1.3-5.2
		c0.6-2.2,2.6-3.7,4.8-3.9c-0.9-2.2-0.3-4.9,1.7-6.4c1.8-1.3,4.2-1.3,6-0.2c0.1-1.7,1.1-3.4,2.6-4.4c2.6-1.8,6-1.3,8.9-0.9
		c0.2,0,0.5,0.4,0.5,0.6c0,0.2,0,0.4-0.1,0.6c1.6-1.7,4.1-2.6,6.4-2c0.3-0.6,0.6-1.1,1.1-1.6c1.1-1.2,2.7-1.8,4.2-1.8
		c-0.8-1.5-0.9-3.5-0.3-5.1c1.3-3.5,5.3-4.5,8.9-4.8c-1.6-1.1-2.8-2.7-2.8-4.6c0-1.7,1-3.2,2.4-3.9c-1.3-1.2-1.7-3.3-1.1-5.1
		c0.9-3,4.2-4.1,7.1-4.6c-1.4-1.2-2.3-2.9-2.1-4.8c0.2-1.9,1.4-3.4,2.9-4.3c-1.3-0.6-2.4-1.6-3.2-2.9c-0.1-0.2-0.1-0.4,0-0.6
		c1.8-2.9,5.1-4.6,8.4-4.5c-1.8-2.2-2.3-5.6-0.7-8.1c1.8-2.8,5.5-3.8,8.5-2.6c0-2.9,2.6-5.6,5.6-5.7c3.4-0.2,6.1,2.5,7.3,5.5
		c2.5-2.6,6.9-3.3,9.8-0.9c2.6,2.1,3.1,5.9,1.7,8.8c2.2-0.4,4.7,0.5,5.9,2.5c1.2,2,0.9,4.4-0.3,6.3c3.1-0.6,6.5,0.6,8.5,3
		c0.3-1.3,1.2-2.6,2.4-3.3c2.5-1.6,5.7-0.8,7.9,0.9c0.5-2.3,2.3-4.3,4.7-4.6c2.3-0.3,4.5,0.9,5.6,2.9c1.7-2.5,5.8-2.9,7.8-0.7
		c1.1-2,3.3-3.2,5.6-2.9c2.2,0.3,3.9,2.1,4.5,4.2c1.5-1.7,4-2.5,6.2-1.6c1.9,0.8,3,2.8,3.1,4.8c1.5-1.2,3.5-1.8,5.4-1.2
		c1.9,0.6,3.2,2.3,3.6,4.2c1.3-1.5,3.4-2.2,5.4-1.7c2,0.5,3.3,2.2,3.8,4c1.1-0.9,2.8-1.1,4.1-0.6c2.4,0.9,3,3.6,2.9,6
		c2-1.4,4.8-1.2,7-0.1c3.3,1.8,4.7,5.7,5.8,9.1c2.1-0.8,4.4,0.3,5.7,2.1c1.6,2.1,1.5,4.7,1.1,7.2c1.9-1.1,4.6-0.6,6.1,1
		c2.6,2.7,1,6.6-1.3,9c1.8,0.4,3.2,1.9,3.6,3.7c2.3-2.2,6.4-2.6,8.7-0.1c1.8,1.8,1.9,4.6,0.9,6.9c1.5-0.2,3.1,0.2,4.2,1.3
		c1.5,1.5,1.8,3.9,1,5.8c1.1,0,2.2,0.4,3,1.1c1.9,1.8,1.6,4.7,1,7C624.4,90.7,624.1,91.8,623.7,92.8z"/>
</g>
<path class="st2" d="M893,46c-1.4-1.1-3.2-1.6-4.7-0.6c-1-3.2-2.1-6.5-4.6-8.6c-2.5-2.1-6.9-2.4-8.7,0.4c0.5-2.3,0.4-5-1.4-6.6
	c-1.6-1.4-4.7-0.7-5.2,1.2c0.2-2.2-1.3-4.6-3.5-5.2c-2.4-0.6-5.1,0.9-5.8,3.3c0.6-2.4-1-5.1-3.4-5.7c-2.4-0.7-5.1,0.7-6.1,2.9
	c1.2-2.3,0-5.5-2.4-6.6c-2.4-1-5.5,0.4-6.3,2.9c0.3-2.4-1.5-4.9-3.9-5.4c-2.4-0.5-5,1.1-5.7,3.5c-1.5-3.2-7.3-2.4-7.9,1
	c-0.6-2.4-3.2-4.1-5.6-3.8c-2.4,0.4-4.4,2.8-4.2,5.3c-1.9-2-4.9-3-7.4-2c-1.9,0.8-3.1,2.9-2.9,4.8c-2-3.6-7.2-5.3-10.9-3.4
	c2-1.6,3-4.6,1.9-6.9c-1.2-2.7-5.2-3.7-7.4-1.8c2.7-2.5,2.6-7.5-0.3-9.8c-2.9-2.3-7.8-1.5-9.7,1.7c-0.8-3.1-3.4-6-6.6-6.1
	c-3.2-0.2-6.3,3.2-5.3,6.2c-2.7-1.9-6.9-1-8.7,1.8c-1.8,2.8-0.7,7,2.1,8.7c-3.6-1-7.9,0.7-9.8,3.9c0.9,1.7,2.7,3,4.7,3.2
	c-2.2,0.2-4.1,2.1-4.4,4.3s1.2,4.5,3.3,5.2c-2.8,0.4-5.9,0.9-7.6,3.1c-1.7,2-1,5.9,1.4,6.5c-1.9-0.1-3.6,2.1-3.3,4.2
	c0.3,2.2,2.3,3.8,4.4,4.6c-3.4,0.2-7.2,0.5-9.6,3c-1.8,1.9-1.6,5.5,0.1,7c-1.8-0.3-3.8,0.2-5.1,1.6c-0.5,0.5-0.9,1.2-1.1,1.9
	c-3.1-1.2-7,0.9-7.7,4.1c0.1-1.2,0.3-2.3,0.4-3.5c-2.5-0.3-5-0.7-7.3,0.3s-4,3.7-3,5.9c-1.5-1.9-4.6-2.3-6.5-0.8
	c-1.9,1.4-2.4,4.5-1.1,6.5c-2.2-0.3-4.5,1.2-5.1,3.3c-0.7,2.1,0.3,4.6,2.3,5.7c-2.5-0.3-5,1.5-5.6,4c-0.1,0.5-0.1,1.1-0.1,1.6H893
	V46z"/>
<g>
	<g>
		<path d="M810.4,74.9c-0.1-1,0.2-2,0.3-3c0.1-1-0.1-1.9-0.4-2.8c-0.6-1.6-1.6-3.3-3.3-3.8c-4.2-1.2-3.9,5-4.1,7.4
			c0.4,0,0.8,0,1.2,0c-0.2-1.5-1-2.8-2.4-3.4c-1.3-0.5-2.9-0.3-3.8,0.8c-1,1.1-1.4,3.1-0.8,4.5c0.3,0.8,1.1,1.3,1.7,1.8
			c0.8,0.6,1.6,1.3,2.4,1.9c0.6,0.5,1.5-0.4,0.9-0.9c-1.1-0.8-2.1-1.7-3.2-2.5c-0.5-0.4-0.9-0.8-0.9-1.5c0-0.6,0.1-1.3,0.4-1.9
			c0.4-1,1.5-1.4,2.5-1.1c1,0.3,1.7,1.3,1.9,2.3c0.1,0.8,1.2,0.8,1.2,0c0.1-1.5,0.1-3.1,0.4-4.5c0.1-0.5,0.3-1.1,0.7-1.5
			c0.6-0.4,1.3-0.3,1.9,0.1c1.2,0.7,1.9,2.4,2.2,3.8c0.3,1.6-0.5,3.1-0.2,4.7C809.3,76.1,810.5,75.7,810.4,74.9L810.4,74.9z"/>
	</g>
</g>
<path d="M893,45.2c-1.3-0.9-2.8-1.2-4.3-0.7c-1.1-3.4-2.5-7.3-5.8-9.1c-2.2-1.2-5-1.3-7,0.1c0.1-2.4-0.5-5.1-2.9-6
	c-1.4-0.5-3-0.3-4.1,0.6c-0.5-1.9-1.8-3.5-3.8-4c-2-0.5-4.1,0.2-5.4,1.7c-0.4-1.9-1.7-3.5-3.6-4.2c-1.9-0.6-3.9-0.1-5.4,1.2
	c-0.1-2-1.2-3.9-3.1-4.8c-2.2-1-4.7-0.2-6.2,1.6c-0.6-2.1-2.3-3.8-4.5-4.2c-2.3-0.3-4.5,0.9-5.6,2.9c-2.1-2.2-6.2-1.8-7.8,0.7
	c-1.1-1.9-3.3-3.2-5.6-2.9c-2.4,0.3-4.3,2.3-4.7,4.6c-2.2-1.7-5.4-2.5-7.9-0.9c-1.2,0.8-2,2-2.4,3.3c-2.1-2.4-5.5-3.6-8.5-3
	c1.2-1.9,1.5-4.3,0.3-6.3c-1.2-2-3.7-3-5.9-2.5c1.4-2.9,0.9-6.7-1.7-8.8c-2.9-2.4-7.4-1.7-9.8,0.9c-1.2-3-3.9-5.7-7.3-5.5
	c-3,0.2-5.6,2.8-5.6,5.7c-3-1.2-6.7-0.2-8.5,2.6c-1.6,2.5-1.1,5.9,0.7,8.1c-3.3-0.1-6.6,1.6-8.4,4.5c-0.1,0.2-0.1,0.4,0,0.6
	c0.8,1.3,1.9,2.3,3.2,2.9c-1.6,0.9-2.8,2.5-2.9,4.3c-0.2,1.9,0.7,3.7,2.1,4.8c-2.9,0.5-6.2,1.6-7.1,4.6c-0.5,1.8-0.2,3.9,1.1,5.1
	c-1.4,0.7-2.4,2.2-2.4,3.9c0,2,1.2,3.6,2.8,4.6c-3.5,0.3-7.6,1.3-8.9,4.8c-0.6,1.6-0.5,3.6,0.3,5.1c-1.6,0.1-3.1,0.6-4.2,1.8
	c-0.4,0.5-0.8,1-1.1,1.6c-2.3-0.6-4.8,0.3-6.4,2c0-0.2,0-0.4,0.1-0.6c0-0.2-0.2-0.6-0.5-0.6c-2.9-0.4-6.3-0.9-8.9,0.9
	c-1.4,1-2.5,2.6-2.6,4.4c-1.8-1.1-4.2-1.1-6,0.2c-2,1.5-2.5,4.2-1.7,6.4c-2.2,0.2-4.2,1.7-4.8,3.9c-0.5,1.9,0.1,3.8,1.3,5.2
	c-2.2,0.4-4.1,2.1-4.7,4.3c-0.1,0.6-0.2,1.2-0.1,1.8h1.2c0-0.5,0-1,0.1-1.4c0.6-2.2,2.8-3.7,5-3.5c0.6,0,0.8-0.9,0.3-1.2
	c-1.6-1-2.6-2.9-2-4.8c0.6-2,2.6-3.2,4.6-3c0.5,0,0.8-0.6,0.5-0.9c-1.1-1.8-0.9-4.4,0.9-5.7c1.8-1.3,4.3-0.8,5.7,0.8
	c0.4,0.5,1.3,0,1-0.6c-0.8-2,0.5-4.1,2.3-5c2.1-1.1,4.6-0.8,6.8-0.5c-0.1,1-0.2,2-0.3,3c-0.1,0.7,1,0.8,1.2,0.2
	c0.7-2.8,3.7-4.4,6.4-3.8c-0.4,1.7,0,3.6,1,5.1c0.5,0.6,1.4,0.1,1.1-0.6c-0.8-1.5-0.9-3.1-0.5-4.7c0-0.1,0-0.3,0-0.4
	c0.2-0.5,0.5-0.9,0.9-1.3c1.2-1.2,2.8-1.7,4.4-1.4c0.6,0.5,1.3,0.8,2.2,0.8c0.6,0,0.8-0.8,0.3-1.2c-0.6-0.4-1.3-0.7-2.1-0.8
	c-1.3-1.3-1.3-3.9-0.4-5.4c1.8-3.1,6.4-3.3,9.6-3.5c0.7,0,0.8-1,0.2-1.2c-1.7-0.7-3.3-1.9-3.8-3.7c-0.5-1.8,0.9-4.2,3-3.8
	c0,0,0,0,0,0c0.1,0,0.1,0,0.2,0c0.7,0.1,0.8-1.1,0.2-1.2c-0.1,0-0.1,0-0.2,0c0,0,0,0,0,0c-2.4-0.2-2.7-3.6-1.6-5.3
	c1.6-2.4,5-2.8,7.5-3.2c0.7-0.1,0.5-1,0-1.2c-1.9-0.7-3.2-2.7-2.8-4.8c0.3-1.9,2-3.3,3.9-3.6c0.6-0.1,0.6-1.1,0-1.2
	c-1.7-0.3-3.1-1.1-4.1-2.6c1.9-2.8,5.5-4.2,8.9-3.4c0.7,0.2,1.1-0.8,0.5-1.1c-2.5-1.6-3.6-5.2-1.9-7.8c1.7-2.6,5.4-3.2,7.9-1.5
	c0.5,0.3,1.1-0.2,0.9-0.7c-0.9-2.9,2.1-5.7,5-5.4c2.9,0.3,5,3,5.7,5.6c0.1,0.5,0.9,0.6,1.1,0.1c1.8-2.8,6.1-3.7,8.7-1.5
	c2.6,2.2,2.6,6.5,0.3,8.9c-0.6,0.6,0.3,1.4,0.9,0.9c2-1.6,5.3-0.7,6.4,1.5c1.1,2.3,0,5-2,6.4c-0.2,0.1-0.4,0.2-0.5,0.3
	c-0.6,0.5-0.1,1.5,0.6,1.1c0.2-0.1,0.4-0.3,0.7-0.4c3.5-2,8.4-0.5,10.3,2.9c0.1,0.7,0.3,1.3,0.7,1.9c0.4,0.6,1.3,0.2,1.1-0.5
	c-0.1-0.6-0.4-1.2-0.6-1.8c-0.2-1.6,0.7-3.3,2.2-4c2.4-1.3,5.3-0.1,7.1,1.7c0.4,0.4,1.1,0.1,1.1-0.4c-0.1-2.3,1.6-4.5,3.9-4.7
	c2.1-0.2,4.1,1.3,4.7,3.3c0.2,0.6,1.1,0.6,1.2,0c0.7-3,5.4-3.5,6.8-0.9c0.3,0.5,1,0.3,1.1-0.1c0.6-2,2.8-3.4,4.9-3
	c2.2,0.4,3.6,2.6,3.4,4.8c-0.1,0.8,1,0.8,1.2,0.2c0.8-2.2,3.6-3.5,5.7-2.4c2,1,2.8,3.6,1.9,5.6c-0.3,0.7,0.7,1.4,1.1,0.6
	c0.9-1.9,3.1-3.2,5.2-2.7c2.2,0.5,3.5,2.9,3.1,5c-0.2,0.8,0.9,1.1,1.2,0.3c0.7-2,2.9-3.4,5.1-2.8c2,0.5,3.2,2.6,3,4.7
	c0,0.2,0,0.3-0.1,0.5c0,0.7,1.1,0.9,1.2,0.2c0-0.1,0-0.1,0-0.2c0,0,0,0,0,0c0.1-1.9,2.7-2.4,4.1-1.5c1.9,1.3,1.8,4.1,1.4,6.1
	c-0.2,0.7,0.7,1.1,1.1,0.5c1.7-2.4,5.4-2,7.6-0.4c2.6,2,3.7,5.5,4.6,8.5c0.1,0.4,0.6,0.6,0.9,0.4c1.5-0.9,3.2-0.2,4.4,0.9V45.2z"/>
</svg>
